<svg width="124" height="119" viewBox="0 0 124 119" fill="none" xmlns="http://www.w3.org/2000/svg">
<path d="M100.54 55.5259C100.54 55.5259 100.286 55.5235 100.082 55.5216C100.041 55.4728 100.021 55.4156 100.026 55.3572C100.031 55.2988 100.061 55.242 100.111 55.1942C100.189 55.1589 100.279 55.1405 100.37 55.1414C100.46 55.1423 100.547 55.1623 100.619 55.199C100.619 55.199 100.654 55.3814 100.54 55.5259Z" fill="#0077FF"/>
<path d="M89.6448 21.7623C89.5687 21.7171 89.4727 21.6921 89.3717 21.6911C89.2706 21.6901 89.1704 21.7133 89.0866 21.757C89.0423 21.7805 89.0055 21.8107 88.979 21.8453C88.9526 21.8799 88.9371 21.918 88.9337 21.9567C88.9304 21.9954 88.9393 22.0337 88.9597 22.0687C88.9802 22.1038 89.0117 22.1346 89.0519 22.159C89.0829 22.1857 89.1213 22.2075 89.1648 22.2231C89.2083 22.2388 89.256 22.2479 89.3054 22.2501C89.3547 22.2523 89.4046 22.2474 89.4523 22.2358C89.5 22.2241 89.5444 22.206 89.5831 22.1823C89.6218 22.1587 89.6541 22.13 89.678 22.098C89.7019 22.0659 89.717 22.0311 89.7224 21.9954C89.7279 21.9598 89.7235 21.9242 89.7097 21.8904C89.6958 21.8567 89.6727 21.8256 89.6417 21.7989L89.6448 21.7623Z" fill="#0077FF"/>
<path d="M21.5622 28.7714C15.7387 41.0537 24.3876 55.2734 41.8777 62.564C59.3677 69.8545 81.5358 68.6339 94.365 59.3927" stroke="#0077FF" stroke-width="0.03" stroke-miterlimit="10"/>
<path d="M18.1461 28.7714C12.3227 41.0537 20.9716 55.2734 38.4616 62.564C55.9517 69.8545 78.1198 68.6339 90.949 59.3927" stroke="#0077FF" stroke-width="0.03" stroke-miterlimit="10"/>
<path d="M106.568 41.0752C109.776 28.2561 98.2885 15.2331 79.5038 10.0984C60.719 4.96373 39.0766 8.78803 28.3194 19.431" stroke="#0077FF" stroke-width="0.03" stroke-miterlimit="10"/>
<path d="M106.568 42.365C109.776 29.5459 98.2885 16.5229 79.5038 11.3882C60.719 6.25352 39.0766 10.0778 28.3194 20.7208" stroke="#0077FF" stroke-width="0.03" stroke-miterlimit="10"/>
<path d="M106.568 43.6549C109.776 30.8358 98.2885 17.8128 79.5038 12.6781C60.719 7.54344 39.0766 11.3677 28.3194 22.0107" stroke="#0077FF" stroke-width="0.03" stroke-miterlimit="10"/>
<path d="M82.997 66.3273C98.9085 61.248 106.909 46.8135 102.172 32.1567C97.4345 17.4999 81.236 6.00556 63.5446 5.13213" stroke="#0077FF" stroke-width="0.03" stroke-miterlimit="10"/>
<path d="M79.3778 68.0007C95.2894 62.9215 103.29 48.487 98.5528 33.8301C93.8154 19.1733 77.6168 7.67903 59.9255 6.80559" stroke="#0077FF" stroke-width="0.03" stroke-miterlimit="10"/>
<path d="M21.5622 32.6409C15.7387 44.9232 24.3876 59.1429 41.8777 66.4335C59.3677 73.724 81.5358 72.5034 94.365 63.2622" stroke="#0077FF" stroke-width="0.03" stroke-miterlimit="10"/>
<path d="M21.5622 35.2207C15.7387 47.5031 24.3876 61.7228 41.8777 69.0133C59.3677 76.3038 81.5358 75.0832 94.365 65.842" stroke="#0077FF" stroke-width="0.03" stroke-miterlimit="10"/>
<path d="M19.4754 29.1503C19.5345 29.1149 19.6088 29.0957 19.6839 29.0964C19.7591 29.0972 19.8299 29.1177 19.8828 29.1542C19.9744 29.1788 20.051 29.2244 20.101 29.2843C20.151 29.3441 20.1716 29.4149 20.1598 29.4861C20.1007 29.5215 20.0265 29.5407 19.9513 29.54C19.8762 29.5393 19.8054 29.5187 19.7525 29.4822C19.6608 29.4576 19.5842 29.412 19.5342 29.3522C19.4843 29.2923 19.4636 29.2215 19.4754 29.1503Z" fill="#0077FF"/>
<path d="M95.6263 60.0596C95.6606 60.0393 95.6888 60.0143 95.7091 59.9861C95.7294 59.9579 95.7413 59.9272 95.744 59.8961C95.7467 59.865 95.7401 59.8341 95.7247 59.8056C95.7093 59.777 95.6855 59.7515 95.6547 59.7306C95.5726 59.6944 95.4776 59.6749 95.3792 59.674C95.2809 59.6731 95.1826 59.6907 95.0944 59.7252C95.0365 59.7708 95.0019 59.8288 94.9967 59.8889C94.9915 59.9491 95.016 60.0077 95.0659 60.0543C95.1423 60.0995 95.2388 60.1246 95.3402 60.1255C95.4415 60.1265 95.5422 60.1033 95.6263 60.0596Z" fill="#0077FF"/>
<path d="M80.3088 17.1071C59.0747 8.19429 34.1453 12.2485 23.2524 24.6555" stroke="#0077FF" stroke-width="0.03" stroke-miterlimit="10"/>
<path d="M80.6642 17.2369C80.7309 17.2918 80.7645 17.3639 80.758 17.4385C80.7516 17.5132 80.7056 17.5846 80.6295 17.6381C80.5457 17.6817 80.4455 17.7048 80.3445 17.7038C80.2435 17.7029 80.1474 17.6779 80.0712 17.6327C80.0145 17.5747 79.9871 17.5038 79.9934 17.4312C79.9996 17.3586 80.0392 17.2884 80.1059 17.2316C80.1897 17.188 80.29 17.1648 80.391 17.1658C80.492 17.1668 80.5881 17.1918 80.6642 17.2369Z" fill="#0077FF"/>
<path d="M22.9641 23.8328C22.902 23.884 22.865 23.948 22.8592 24.0143C22.8535 24.0806 22.8794 24.1452 22.9326 24.1975C22.9592 24.2211 22.9927 24.2401 23.031 24.2532C23.0692 24.2664 23.1114 24.2734 23.1546 24.2738C23.1978 24.2742 23.2411 24.268 23.2816 24.2556C23.3221 24.2432 23.3589 24.2249 23.3895 24.2019C23.4471 24.1564 23.4816 24.0986 23.4868 24.0385C23.492 23.9785 23.4676 23.9201 23.4178 23.8736C23.4178 23.8736 23.0656 23.8337 22.9641 23.8328Z" fill="#0077FF"/>
<path d="M76.2035 65.0493C64.8978 67.023 53.2215 65.7212 43.5664 61.4105" stroke="#0077FF" stroke-width="0.03" stroke-miterlimit="10"/>
<path d="M76.2011 64.9095C76.2733 64.8814 76.3538 64.867 76.4343 64.8677C76.5149 64.8685 76.5927 64.8844 76.66 64.9139C76.7037 64.9484 76.7259 64.9944 76.7218 65.0421C76.7176 65.0898 76.6875 65.1354 76.6379 65.169C76.5656 65.1971 76.4852 65.2115 76.4046 65.2107C76.3241 65.21 76.2463 65.1941 76.179 65.1646C76.1449 65.1271 76.1287 65.0823 76.1326 65.0365C76.1366 64.9907 76.1605 64.9463 76.2011 64.9095Z" fill="#0077FF"/>
<path d="M43.5054 61.2289C43.4482 61.1986 43.3785 61.182 43.3056 61.1813C43.2328 61.1806 43.1604 61.1958 43.098 61.225C43.0527 61.2674 43.026 61.318 43.0215 61.3701C43.017 61.4221 43.0349 61.4732 43.0728 61.5163C43.0728 61.5163 43.4292 61.5197 43.4802 61.5202C43.5337 61.4806 43.5659 61.429 43.5706 61.3753C43.5752 61.3216 43.552 61.2694 43.5054 61.2289Z" fill="#0077FF"/>
<path d="M44.6981 16.2664C44.5954 16.2886 44.4866 16.2815 44.3949 16.2466C44.3033 16.2116 44.2361 16.1517 44.2077 16.0794C44.1772 16.0586 44.1535 16.0332 44.1382 16.0048C44.1229 15.9763 44.1164 15.9456 44.119 15.9146C44.1217 15.8836 44.1336 15.853 44.1537 15.825C44.1739 15.7969 44.2019 15.7719 44.236 15.7517C44.3378 15.7375 44.4417 15.7483 44.5307 15.7822C44.6197 15.8161 44.6887 15.8713 44.7263 15.9386C44.7679 15.9874 44.7874 16.0447 44.7823 16.1032C44.7773 16.1616 44.7479 16.2185 44.6981 16.2664Z" fill="#0077FF"/>
<path d="M34.9677 58.0016C23.1558 50.4158 18.2536 38.212 24.6242 27.9983C27.1763 23.9729 31.2862 20.5864 36.3842 18.3084" stroke="#0077FF" stroke-width="0.03" stroke-miterlimit="10"/>
<path d="M36.611 57.8568C36.611 57.8568 36.5922 58.0751 36.5859 58.1479C36.5553 58.1708 36.5186 58.1891 36.4782 58.2015C36.4377 58.2138 36.3945 58.22 36.3513 58.2196C36.3082 58.2192 36.2661 58.2122 36.2278 58.1991C36.1896 58.1859 36.1561 58.167 36.1295 58.1435C36.0995 58.1262 36.0759 58.104 36.0604 58.0786C36.045 58.0532 36.0383 58.0252 36.0407 57.997C36.0431 57.9687 36.0547 57.941 36.0745 57.9159C36.0943 57.8908 36.1217 57.869 36.1547 57.8524C36.2277 57.8275 36.307 57.8149 36.3862 57.8157C36.4655 57.8164 36.5425 57.8305 36.611 57.8568Z" fill="#0077FF"/>
<path d="M36.1803 18.716C36.216 18.6926 36.2452 18.6646 36.2661 18.6335C36.287 18.6024 36.2993 18.569 36.3022 18.5351C36.3052 18.5012 36.2987 18.4675 36.2831 18.4361C36.2676 18.4047 36.2433 18.3761 36.2117 18.3521C36.1809 18.3275 36.1432 18.3079 36.101 18.2944C36.0587 18.2808 36.0127 18.2736 35.9656 18.2732C35.9185 18.2727 35.8714 18.279 35.8268 18.2918C35.7823 18.3045 35.7413 18.3233 35.7063 18.3472C35.7063 18.3472 35.6875 18.5656 35.6749 18.7112C35.7466 18.7479 35.8329 18.7679 35.9228 18.7688C36.0128 18.7697 36.1024 18.7513 36.1803 18.716Z" fill="#0077FF"/>
<path d="M34.2134 54.5886C31.2998 52.3301 28.9779 49.7032 27.3516 46.8254" stroke="#0077FF" stroke-width="0.03" stroke-miterlimit="10"/>
<path d="M34.5232 54.4759C34.5698 54.5165 34.593 54.5687 34.5883 54.6225C34.5837 54.6763 34.5515 54.7279 34.498 54.7675C34.4277 54.7998 34.3465 54.8166 34.2649 54.8158C34.1833 54.815 34.1051 54.7967 34.0405 54.7631C33.9939 54.7226 33.9707 54.6704 33.9754 54.6166C33.98 54.5628 34.0122 54.5112 34.0657 54.4716C34.1331 54.4336 34.216 54.4133 34.2996 54.4141C34.3833 54.4149 34.4625 54.4368 34.5232 54.4759Z" fill="#0077FF"/>
<path d="M27.2029 46.7875C27.1358 46.7581 27.0581 46.7422 26.9777 46.7414C26.8972 46.7406 26.8169 46.755 26.7448 46.7831C26.6952 46.8167 26.6651 46.8622 26.661 46.9098C26.6568 46.9575 26.679 47.0035 26.7227 47.038C26.7899 47.0674 26.8676 47.0833 26.948 47.084C27.0284 47.0848 27.1088 47.0704 27.1809 47.0423C27.1809 47.0423 27.2444 46.8972 27.2029 46.7875Z" fill="#0077FF"/>
<path d="M97.7445 42.5311C97.8606 47.2531 95.6444 51.9346 91.4852 55.7532C82.7505 63.8885 66.8191 66.525 52.6826 63.1981" stroke="#0077FF" stroke-width="0.03" stroke-miterlimit="10"/>
<path d="M97.4388 43.0439C97.4574 42.9731 97.5113 42.9083 97.5904 42.8619C97.6694 42.8155 97.7681 42.7907 97.8676 42.7922C97.9639 42.7992 98.0531 42.8281 98.1222 42.8748C98.1914 42.9214 98.2369 42.9834 98.2522 43.0517C98.2546 43.0969 98.24 43.1423 98.2101 43.1833C98.1802 43.2243 98.1359 43.2593 98.0819 43.2849C98.0279 43.3104 97.9661 43.3255 97.9028 43.3285C97.8395 43.3316 97.777 43.3226 97.7218 43.3024C97.648 43.2798 97.5838 43.2445 97.5345 43.1995C97.4853 43.1545 97.4525 43.1011 97.4388 43.0439Z" fill="#0077FF"/>
<path d="M53.0084 62.5345L52.7031 62.5316C52.7031 62.5316 52.6842 62.7507 52.681 62.7872C52.6779 62.8237 53.0372 62.7906 53.0372 62.7906C53.0372 62.7906 53.2088 62.573 53.0084 62.5345Z" fill="#0077FF"/>
<path d="M87.0684 26.304C91.415 29.5406 94.5068 33.5619 96.0565 37.9941" stroke="#0077FF" stroke-width="0.03" stroke-miterlimit="10"/>
<path d="M86.2914 26.4833C86.2511 26.4629 86.219 26.4355 86.198 26.4034C86.1769 26.3713 86.1675 26.3356 86.1707 26.2994C86.1738 26.2633 86.1893 26.2278 86.2159 26.1962C86.2425 26.1645 86.2792 26.1377 86.3229 26.1182C86.4029 26.0675 86.5054 26.0398 86.6095 26.0408C86.7135 26.0418 86.8111 26.0714 86.8822 26.1235C86.9225 26.1439 86.9546 26.1713 86.9756 26.2034C86.9967 26.2355 87.0061 26.2712 87.0029 26.3074C86.9998 26.3435 86.9843 26.379 86.9577 26.4106C86.9311 26.4423 86.8944 26.4691 86.8507 26.4886C86.8147 26.5187 86.7701 26.5429 86.7202 26.5593C86.6703 26.5757 86.6164 26.584 86.5626 26.5835C86.5087 26.5829 86.4563 26.5737 86.4094 26.5563C86.3624 26.539 86.322 26.514 86.2914 26.4833Z" fill="#0077FF"/>
<path d="M96.2519 38.0293C96.3241 38.066 96.4109 38.0861 96.5015 38.0869C96.592 38.0878 96.6822 38.0694 96.7606 38.0342C96.8058 37.9919 96.8325 37.9413 96.837 37.8893C96.8415 37.8372 96.8236 37.7862 96.7857 37.7431C96.7171 37.7011 96.6294 37.6777 96.5369 37.6769C96.4445 37.676 96.3528 37.6976 96.2771 37.7383C96.2318 37.7806 96.2051 37.8312 96.2006 37.8832C96.1961 37.9352 96.214 37.9862 96.2519 38.0293Z" fill="#0077FF"/>
<path d="M70.3633 19.0052C72.863 19.663 75.2686 20.4765 77.5536 21.437C79.8375 22.4038 81.9939 23.5113 83.9999 24.7477" stroke="#0077FF" stroke-width="0.03" stroke-miterlimit="10"/>
<path d="M70.0144 19.2955C70.0144 19.2955 69.6778 19.0732 70.0459 18.9307C70.0811 18.9067 70.1223 18.8878 70.167 18.8751C70.2117 18.8624 70.2591 18.856 70.3064 18.8565C70.3537 18.8569 70.4 18.8642 70.4424 18.8777C70.4849 18.8913 70.5227 18.911 70.5537 18.9356C70.6069 18.9879 70.6328 19.0525 70.6271 19.1188C70.6213 19.1851 70.5844 19.2492 70.5222 19.3004C70.487 19.3243 70.4458 19.3432 70.4011 19.356C70.3564 19.3687 70.3089 19.3751 70.2616 19.3746C70.2143 19.3742 70.1681 19.3669 70.1257 19.3534C70.0832 19.3398 70.0454 19.3201 70.0144 19.2955Z" fill="#0077FF"/>
<path d="M83.955 25.072C84.026 25.124 84.1235 25.1536 84.2274 25.1546C84.3314 25.1555 84.4338 25.1279 84.5137 25.0773C84.5496 25.0538 84.5789 25.0257 84.5999 24.9945C84.621 24.9634 84.6333 24.9298 84.6362 24.8959C84.6392 24.8619 84.6327 24.8281 84.617 24.7966C84.6014 24.7651 84.577 24.7365 84.5453 24.7124C84.4742 24.6603 84.3767 24.6308 84.2728 24.6298C84.1689 24.6288 84.0664 24.6564 83.9865 24.7071C83.9507 24.7305 83.9214 24.7586 83.9003 24.7898C83.8793 24.8209 83.867 24.8545 83.864 24.8885C83.8611 24.9225 83.8676 24.9562 83.8832 24.9877C83.8988 25.0192 83.9232 25.0478 83.955 25.072Z" fill="#0077FF"/>
<path d="M26.2614 46.4126C24.7747 43.7141 24.0812 40.8 24.2229 37.8467C24.3647 34.8934 25.3388 31.9623 27.0861 29.2307C33.3009 19.9668 48.077 15.301 63.5395 17.3428" stroke="#0077FF" stroke-width="0.03" stroke-miterlimit="10"/>
<path d="M26.6621 45.9534L26.6403 46.2073C26.557 46.2061 26.4769 46.1881 26.409 46.1554C26.3411 46.1227 26.2879 46.0766 26.2555 46.0221C26.2555 46.0221 26.2773 45.7682 26.2773 45.7682C26.3623 45.7646 26.4454 45.7806 26.5146 45.8139C26.5837 45.8472 26.6354 45.896 26.6621 45.9534Z" fill="#0077FF"/>
<path d="M63.4807 18.0511C63.5308 18.0569 63.5827 18.0547 63.6326 18.0447C63.6825 18.0347 63.7294 18.0172 63.7699 17.9933C63.8105 17.9694 63.8438 17.9397 63.8676 17.9062C63.8914 17.8728 63.9051 17.8364 63.9078 17.7995C63.9185 17.7583 63.9171 17.7163 63.9034 17.6764C63.8897 17.6365 63.8642 17.5996 63.8285 17.5681C63.7928 17.5366 63.7479 17.5113 63.6966 17.4939C63.6453 17.4765 63.5889 17.4674 63.5311 17.4672C63.4876 17.4614 63.4425 17.4627 63.3988 17.4708C63.3552 17.479 63.3141 17.4939 63.2784 17.5145C63.2428 17.535 63.2136 17.5608 63.1927 17.5899C63.1719 17.619 63.1599 17.6507 63.1578 17.6828C63.1354 17.7644 63.1562 17.8477 63.216 17.9159C63.2758 17.9842 63.3703 18.0325 63.4807 18.0511Z" fill="#0077FF"/>
<path d="M35.3378 53.1367C33.5532 51.6808 32.0028 50.0818 30.7139 48.3678" stroke="#0077FF" stroke-width="0.03" stroke-miterlimit="10"/>
<path d="M30.9985 48.3001C30.9337 48.2665 30.8554 48.2481 30.7736 48.2473C30.6918 48.2465 30.6104 48.2634 30.5399 48.2957C30.5068 48.3124 30.4792 48.3342 30.4593 48.3594C30.4394 48.3846 30.4278 48.4124 30.4254 48.4408C30.4229 48.4691 30.4297 48.4971 30.4452 48.5227C30.4607 48.5482 30.4845 48.5705 30.5146 48.5878C30.5794 48.6214 30.6578 48.6398 30.7396 48.6405C30.8214 48.6413 30.9028 48.6245 30.9732 48.5921C31.0064 48.5754 31.034 48.5536 31.0539 48.5285C31.0737 48.5033 31.0854 48.4754 31.0878 48.4471C31.0903 48.4187 31.0835 48.3907 31.068 48.3652C31.0525 48.3397 31.0287 48.3174 30.9985 48.3001Z" fill="#0077FF"/>
<path d="M51.0371 19.7432C54.6821 19.2819 58.3592 19.3274 61.9313 19.8782" stroke="#0077FF" stroke-width="0.03" stroke-miterlimit="10"/>
<path d="M51.1129 19.9155C51.0125 19.9257 50.9122 19.9086 50.8319 19.8674C50.7515 19.8263 50.697 19.7641 50.6791 19.6932C50.6791 19.6932 50.7041 19.4027 50.7041 19.4027C50.7548 19.3923 50.8076 19.3899 50.8585 19.3959C50.9095 19.4019 50.9575 19.416 50.9989 19.4373C51.0404 19.4585 51.0744 19.4864 51.0984 19.5188C51.1224 19.5513 51.1359 19.5875 51.1379 19.625C51.1379 19.625 51.314 19.9174 51.1129 19.9155Z" fill="#0077FF"/>
<path d="M61.9229 20.064C62.0088 20.056 62.0893 20.026 62.1493 19.9796C62.2093 19.9332 62.2449 19.8736 62.2493 19.8118C62.256 19.7344 62.2197 19.6598 62.1483 19.6044C62.0769 19.549 61.9763 19.5172 61.8687 19.5162C61.7746 19.5153 61.682 19.5413 61.6112 19.5886C61.5405 19.6358 61.4975 19.7003 61.4916 19.768C61.4972 19.8487 61.5444 19.9236 61.624 19.9782C61.7036 20.0329 61.8101 20.0635 61.9229 20.064Z" fill="#0077FF"/>
<path d="M28.0947 44.5786C25.9289 39.9144 26.3696 34.7289 29.324 30.1147C30.9212 27.8127 33.1374 25.7538 35.8332 24.0675C38.5291 22.3812 41.6464 21.1038 44.9894 20.3157" stroke="#0077FF" stroke-width="0.03" stroke-miterlimit="10"/>
<path d="M28.5122 44.3752L28.4905 44.629C28.4019 44.6246 28.3184 44.6013 28.2505 44.5618C28.1827 44.5224 28.1335 44.4687 28.1092 44.4076L28.1278 44.19C28.1715 44.1793 28.2175 44.1757 28.2623 44.1796C28.3072 44.1836 28.3497 44.1949 28.3868 44.2127C28.4238 44.2305 28.4543 44.2544 28.476 44.2826C28.4977 44.3107 28.5101 44.3424 28.5122 44.3752Z" fill="#0077FF"/>
<path d="M45.169 20.8717C45.2033 20.8515 45.2314 20.8265 45.2517 20.7983C45.2719 20.7702 45.2838 20.7395 45.2865 20.7085C45.2892 20.6774 45.2826 20.6466 45.2673 20.6181C45.2519 20.5896 45.2281 20.5641 45.1974 20.5432C45.1289 20.501 45.0413 20.4776 44.9489 20.4767C44.8565 20.4758 44.7649 20.4976 44.6892 20.5384C44.6533 20.5618 44.624 20.59 44.6029 20.6211C44.5819 20.6523 44.5695 20.6859 44.5666 20.7199C44.5636 20.7538 44.5702 20.7876 44.5858 20.8191C44.6014 20.8506 44.6258 20.8793 44.6576 20.9034C44.7322 20.9407 44.8237 20.9579 44.9167 20.9521C45.0098 20.9464 45.0988 20.918 45.169 20.8717Z" fill="#0077FF"/>
<path d="M85.2268 27.89C95.4265 35.8031 97.0462 46.8327 88.7078 54.7495C84.4907 58.2943 78.9153 60.8644 72.7472 62.1068C66.5792 63.3492 60.1208 63.2031 54.2589 61.6885" stroke="#0077FF" stroke-width="0.03" stroke-miterlimit="10"/>
<path d="M84.5302 28.3874C84.4985 28.3633 84.4741 28.3346 84.4584 28.3031C84.4428 28.2716 84.4363 28.2378 84.4392 28.2038C84.4422 28.1698 84.4545 28.1363 84.4755 28.1051C84.4966 28.0739 84.5259 28.0458 84.5618 28.0223C84.6418 27.9716 84.7443 27.944 84.8484 27.945C84.9524 27.946 85.05 27.9755 85.1211 28.0276C85.1613 28.048 85.1934 28.0755 85.2145 28.1075C85.2355 28.1396 85.2449 28.1753 85.2418 28.2115C85.2387 28.2476 85.2231 28.2831 85.1966 28.3147C85.17 28.3464 85.1332 28.3732 85.0895 28.3927C85.0095 28.4434 84.907 28.471 84.803 28.4701C84.6989 28.4691 84.6013 28.4395 84.5302 28.3874Z" fill="#0077FF"/>
<path d="M54.2739 61.1955L53.9141 61.192C53.9231 61.2513 53.9545 61.307 54.0049 61.3531C54.0553 61.3992 54.1227 61.4341 54.2001 61.454L54.56 61.4574C54.5663 61.3947 54.5407 61.3336 54.4881 61.2854C54.4355 61.2372 54.3594 61.2052 54.2739 61.1955Z" fill="#0077FF"/>
<path d="M33.8396 28.9611C36.2013 26.6457 39.3254 24.7756 42.912 23.5303" stroke="#0077FF" stroke-width="0.03" stroke-miterlimit="10"/>
<path d="M34.1304 29.0515C34.1304 29.0515 33.8247 29.0486 33.6208 29.0467C33.5709 29.0001 33.5463 28.9417 33.5515 28.8816C33.5567 28.8215 33.5913 28.7636 33.6492 28.7181C33.7251 28.6773 33.817 28.6555 33.9096 28.6564C34.0022 28.6573 34.0901 28.6808 34.1589 28.7229C34.2007 28.7718 34.2204 28.8293 34.2153 28.8879C34.2102 28.9465 34.1806 29.0035 34.1304 29.0515Z" fill="#0077FF"/>
<path d="M43.0952 23.882C43.131 23.8586 43.1603 23.8305 43.1813 23.7993C43.2024 23.7682 43.2147 23.7346 43.2176 23.7006C43.2206 23.6666 43.2141 23.6329 43.1985 23.6014C43.1828 23.5699 43.1585 23.5413 43.1267 23.5172C43.0582 23.475 42.9706 23.4516 42.8783 23.4507C42.7859 23.4498 42.6944 23.4716 42.6187 23.5123C42.5829 23.5358 42.5536 23.5639 42.5326 23.5951C42.5115 23.6262 42.4992 23.6598 42.4963 23.6937C42.4933 23.7277 42.4999 23.7614 42.5155 23.7929C42.5311 23.8244 42.5555 23.8531 42.5872 23.8772C42.6557 23.9193 42.7433 23.9428 42.8357 23.9436C42.928 23.9445 43.0195 23.9228 43.0952 23.882Z" fill="#0077FF"/>
<path d="M29.9996 42.6886C29.3019 39.6682 29.5251 36.4928 30.6458 33.4955" stroke="#0077FF" stroke-width="0.03" stroke-miterlimit="10"/>
<path d="M30.5165 42.6922L30.4976 42.911C30.4302 42.9342 30.3568 42.9456 30.2836 42.9442C30.2104 42.9428 30.1396 42.9287 30.0773 42.903C30.015 42.8773 29.9629 42.8408 29.9255 42.7967C29.8882 42.7525 29.8667 42.702 29.8628 42.6494C29.8391 42.6159 29.8283 42.578 29.8316 42.5396C29.8349 42.5012 29.8522 42.4636 29.8817 42.4306C29.9468 42.395 30.0241 42.3735 30.104 42.3689C30.1838 42.3642 30.2627 42.3767 30.3305 42.4046C30.3984 42.4326 30.4522 42.4748 30.4853 42.526C30.5184 42.5772 30.5293 42.635 30.5165 42.6922Z" fill="#0077FF"/>
<path d="M30.8883 33.579C30.8969 33.5129 30.8738 33.4477 30.8228 33.3942C30.7719 33.3407 30.6959 33.302 30.6077 33.2847C30.5547 33.2483 30.4839 33.2278 30.4086 33.227C30.3334 33.2263 30.2592 33.2455 30.2 33.2808C30.1883 33.3517 30.2089 33.4223 30.259 33.4819C30.309 33.5416 30.3857 33.5871 30.4774 33.6116C30.5369 33.6434 30.6119 33.6577 30.6878 33.6517C30.7637 33.6456 30.8352 33.6198 30.8883 33.579Z" fill="#0077FF"/>
<path d="M62.8732 60.8713C60.3855 60.7962 57.9312 60.5052 55.5576 60.0038" stroke="#0077FF" stroke-width="0.03" stroke-miterlimit="10"/>
<path d="M62.8747 60.5436C62.9612 60.5438 63.043 60.5665 63.1051 60.6074C63.1672 60.6483 63.2053 60.7046 63.2123 60.766C63.2123 60.766 63.1965 60.9484 62.8909 60.9455C62.5853 60.9426 62.5344 60.9421 62.5534 60.7232C62.5723 60.5042 62.671 60.5417 62.8747 60.5436Z" fill="#0077FF"/>
<path d="M55.545 59.7845C55.545 59.7845 55.1885 59.7811 55.1727 59.9636C55.1797 60.025 55.2178 60.0813 55.2799 60.1222C55.342 60.1631 55.4239 60.1858 55.5103 60.186L55.8159 60.1889C55.8159 60.1889 55.7456 59.823 55.545 59.7845Z" fill="#0077FF"/>
<path d="M83.838 30.0218C87.8696 33.0431 90.3109 37.0681 90.7475 41.4138C91.1841 45.7595 89.5891 50.1581 86.2332 53.8631C83.7779 56.3124 80.5277 58.2599 76.8157 59.506" stroke="#0077FF" stroke-width="0.03" stroke-miterlimit="10"/>
<path d="M82.667 30.2525C82.6352 30.2284 82.6108 30.1998 82.5952 30.1682C82.5796 30.1367 82.573 30.103 82.5759 30.069C82.5789 30.035 82.5913 30.0014 82.6123 29.9703C82.6333 29.9391 82.6626 29.911 82.6985 29.8875C82.7785 29.8369 82.881 29.8092 82.985 29.8102C83.089 29.8112 83.1865 29.8408 83.2576 29.8928C83.2894 29.917 83.3137 29.9456 83.3294 29.9771C83.345 30.0086 83.3516 30.0424 83.3486 30.0764C83.3457 30.1104 83.3333 30.1439 83.3123 30.1751C83.2912 30.2063 83.2619 30.2344 83.226 30.2579C83.1421 30.3015 83.0417 30.3247 82.9406 30.3237C82.8394 30.3227 82.7432 30.2977 82.667 30.2525Z" fill="#0077FF"/>
<path d="M76.7923 58.9963C76.7593 59.0129 76.7318 59.0346 76.712 59.0597C76.6922 59.0847 76.6806 59.1125 76.6782 59.1407C76.6758 59.1689 76.6825 59.1968 76.698 59.2222C76.7134 59.2476 76.7371 59.2698 76.7672 59.287C76.8357 59.329 76.9233 59.3523 77.0155 59.3532C77.1078 59.3541 77.1993 59.3325 77.2749 59.2919C77.2749 59.2919 77.2906 59.1101 77.3001 59.0011C77.2316 58.9591 77.144 58.9358 77.0517 58.9349C76.9594 58.934 76.8679 58.9557 76.7923 58.9963Z" fill="#0077FF"/>
<path d="M55.7524 21.6187C57.2878 21.5286 58.8212 21.551 60.3422 21.6859" stroke="#0077FF" stroke-width="0.03" stroke-miterlimit="10"/>
<path d="M55.7809 21.8801C55.6814 21.8797 55.5872 21.8531 55.5164 21.8053C55.4455 21.7575 55.4029 21.6919 55.3966 21.6208C55.3966 21.6208 55.4218 21.3288 55.7743 21.3687C55.8739 21.3691 55.9681 21.3957 56.0389 21.4435C56.1097 21.4914 56.1523 21.557 56.1586 21.6281C56.1528 21.6958 56.1097 21.7604 56.0389 21.8077C55.968 21.855 55.8753 21.881 55.7809 21.8801Z" fill="#0077FF"/>
<path d="M60.365 22.0802C60.4593 22.0811 60.5521 22.0551 60.6229 22.0078C60.6938 21.9605 60.7369 21.8959 60.7427 21.8282C60.7277 21.7502 60.6775 21.6791 60.5995 21.6257C60.5216 21.5722 60.4202 21.5393 60.3107 21.5318C60.2164 21.5309 60.1236 21.557 60.0528 21.6043C59.9819 21.6515 59.9389 21.7162 59.933 21.7839C59.9386 21.8647 59.9858 21.9396 60.0655 21.9944C60.1453 22.0491 60.252 22.0797 60.365 22.0802Z" fill="#0077FF"/>
<path d="M36.6891 51.6181C36.1756 51.1401 35.6621 50.6621 35.2021 50.1483" stroke="#0077FF" stroke-width="0.03" stroke-miterlimit="10"/>
<path d="M37.0117 51.5103C37.0117 51.5103 36.9899 51.7638 36.9868 51.8C36.92 51.8377 36.8379 51.8579 36.755 51.8571C36.6721 51.8563 36.5936 51.8345 36.5334 51.7956C36.5334 51.7956 36.5553 51.5422 36.5584 51.506C36.6252 51.4683 36.7072 51.448 36.7902 51.4488C36.8731 51.4496 36.9515 51.4714 37.0117 51.5103Z" fill="#0077FF"/>
<path d="M35.4089 50.0767C35.3441 50.0431 35.2657 50.0247 35.1839 50.0239C35.1021 50.0231 35.0206 50.04 34.9501 50.0723C34.917 50.089 34.8894 50.1108 34.8695 50.136C34.8496 50.1612 34.838 50.1891 34.8355 50.2174C34.8331 50.2458 34.8399 50.2738 34.8554 50.2994C34.8709 50.3249 34.8947 50.3472 34.9248 50.3645C34.9921 50.394 35.0699 50.4099 35.1504 50.4107C35.2309 50.4115 35.3113 50.3971 35.3836 50.3689C35.4167 50.3522 35.4443 50.3304 35.4642 50.3052C35.4841 50.28 35.4957 50.2521 35.4982 50.2238C35.5006 50.1954 35.4938 50.1674 35.4783 50.1418C35.4628 50.1163 35.439 50.094 35.4089 50.0767Z" fill="#0077FF"/>
<path d="M88.1045 42.6394C88.4093 46.1565 87.0136 49.7008 84.1674 52.6375C83.3151 53.4865 82.3566 54.2751 81.3057 54.9919" stroke="#0077FF" stroke-width="0.03" stroke-miterlimit="10"/>
<path d="M87.6849 42.7035C87.6871 42.6714 87.699 42.6396 87.72 42.6105C87.741 42.5814 87.7704 42.5556 87.8062 42.535C87.842 42.5144 87.8833 42.4995 87.9272 42.4913C87.9711 42.4831 88.0165 42.4819 88.0602 42.4877C88.1115 42.4829 88.1631 42.4861 88.2115 42.497C88.2599 42.508 88.3039 42.5264 88.3404 42.5511C88.377 42.5757 88.4053 42.606 88.4234 42.6399C88.4415 42.6738 88.4489 42.7104 88.4452 42.7473C88.4276 42.8085 88.3798 42.8642 88.3108 42.9039C88.2418 42.9436 88.1562 42.9646 88.07 42.9632C87.9702 42.9628 87.8759 42.9361 87.8049 42.8883C87.7339 42.8404 87.6912 42.7747 87.6849 42.7035Z" fill="#0077FF"/>
<path d="M81.0155 54.7368C80.9577 54.7823 80.9232 54.8402 80.918 54.9003C80.9128 54.9604 80.9372 55.0189 80.9871 55.0655C81.0556 55.1077 81.1433 55.1311 81.2358 55.132C81.3282 55.1329 81.4199 55.1111 81.4957 55.0703C81.5492 55.0306 81.5814 54.9789 81.586 54.925C81.5907 54.8711 81.5675 54.8188 81.5209 54.7782C81.4544 54.7358 81.3708 54.7092 81.2808 54.7018C81.1907 54.6945 81.0984 54.7066 81.0155 54.7368Z" fill="#0077FF"/>
<path d="M81.4043 31.9438L81.8712 32.3851" stroke="#0077FF" stroke-width="0.03" stroke-miterlimit="10"/>
<path d="M81.0631 32.1937C81.0102 32.1415 80.9844 32.077 80.9901 32.0108C80.9958 31.9447 81.0326 31.8808 81.0945 31.8297C81.174 31.7792 81.276 31.7517 81.3794 31.7527C81.4828 31.7536 81.5798 31.7831 81.6505 31.835C81.6505 31.835 81.6254 32.1262 81.6191 32.199C81.5396 32.2495 81.4377 32.277 81.3342 32.2761C81.2308 32.2751 81.1338 32.2456 81.0631 32.1937Z" fill="#0077FF"/>
<path d="M81.5683 32.5283C81.6446 32.5735 81.7408 32.5985 81.8419 32.5994C81.9431 32.6004 82.0435 32.5773 82.1274 32.5336C82.1633 32.5102 82.1926 32.482 82.2137 32.4509C82.2347 32.4197 82.247 32.3861 82.25 32.3521C82.2529 32.3181 82.2464 32.2844 82.2308 32.2529C82.2152 32.2214 82.1907 32.1927 82.159 32.1686C82.0879 32.1165 81.9903 32.087 81.8863 32.086C81.7823 32.085 81.6798 32.1126 81.5999 32.1633C81.564 32.1867 81.5347 32.2149 81.5137 32.246C81.4926 32.2772 81.4802 32.3108 81.4773 32.3448C81.4744 32.3788 81.4809 32.4125 81.4966 32.444C81.5122 32.4755 81.5366 32.5042 81.5683 32.5283Z" fill="#0077FF"/>
<path d="M32.5918 41.699C31.9671 38.5449 32.7083 35.2783 34.7123 32.3528C36.7 29.5789 39.7833 27.2841 43.5372 25.785" stroke="#0077FF" stroke-width="0.03" stroke-miterlimit="10"/>
<path d="M43.77 26.1208C43.77 26.1208 43.7889 25.9024 43.8014 25.7568C43.7333 25.7148 43.6461 25.6914 43.5543 25.6905C43.4624 25.6896 43.3713 25.7113 43.2961 25.752C43.2342 25.8031 43.1974 25.8669 43.1917 25.9331C43.186 25.9993 43.2117 26.0637 43.2647 26.1159C43.3364 26.1526 43.4227 26.1727 43.5126 26.1735C43.6026 26.1744 43.6921 26.156 43.77 26.1208Z" fill="#0077FF"/>
<path d="M35.7002 42.9847C34.7256 39.8138 35.3265 36.4382 37.3974 33.4502C39.4627 30.6194 42.8014 28.3697 46.8172 27.1027" stroke="#0077FF" stroke-width="0.03" stroke-miterlimit="10"/>
<path d="M36.1048 42.8395C36.1119 42.8698 36.1081 42.9012 36.0937 42.9309C36.0792 42.9606 36.0546 42.9875 36.0222 43.0091C35.9898 43.0307 35.9507 43.0463 35.9084 43.0545C35.8662 43.0626 35.8223 43.063 35.7809 43.0556C35.6946 43.0554 35.6129 43.0327 35.551 42.9918C35.489 42.9509 35.451 42.8945 35.444 42.8332L35.7171 42.6166C35.805 42.6251 35.8871 42.6502 35.9552 42.6893C36.0233 42.7284 36.0749 42.7802 36.1048 42.8395Z" fill="#0077FF"/>
<path d="M47.0005 27.4799C47.0363 27.4565 47.0656 27.4283 47.0867 27.3972C47.1077 27.366 47.1201 27.3325 47.123 27.2985C47.1259 27.2645 47.1194 27.2308 47.1038 27.1993C47.0881 27.1678 47.0638 27.1391 47.032 27.115C46.9635 27.0729 46.8759 27.0494 46.7836 27.0486C46.6912 27.0477 46.5997 27.0694 46.5241 27.1102C46.4619 27.1614 46.4249 27.2255 46.4191 27.2918C46.4134 27.3581 46.4393 27.4228 46.4925 27.4751C46.567 27.5078 46.6531 27.5255 46.7423 27.5264C46.8314 27.5272 46.9205 27.5112 47.0005 27.4799Z" fill="#0077FF"/>
<path d="M38.4325 42.8921C37.6123 40.1037 38.1977 37.1445 40.0836 34.5462C42.0267 31.8992 45.2487 29.8456 49.0898 28.8061" stroke="#0077FF" stroke-width="0.03" stroke-miterlimit="10"/>
<path d="M38.8233 42.7884C38.8533 42.8202 38.8677 42.8586 38.8644 42.898C38.861 42.9373 38.84 42.9754 38.8046 43.0065C38.7153 43.0021 38.6311 42.9787 38.5627 42.9392C38.4943 42.8997 38.4447 42.8459 38.4202 42.7846C38.377 42.7501 38.3551 42.7042 38.3592 42.6566C38.3633 42.6091 38.393 42.5636 38.4421 42.5301C38.5409 42.5305 38.6343 42.557 38.7045 42.6046C38.7748 42.6522 38.8171 42.7176 38.8233 42.7884Z" fill="#0077FF"/>
<path d="M49.2743 29.1414C49.2743 29.1414 49.5284 29.1438 49.3027 28.8129C49.2342 28.7707 49.1465 28.7473 49.0542 28.7464C48.9618 28.7455 48.8702 28.7672 48.7945 28.808C48.7368 28.8535 48.7023 28.9114 48.6971 28.9715C48.6919 29.0316 48.7163 29.09 48.7661 29.1365C48.7971 29.1611 48.835 29.1808 48.8775 29.1944C48.92 29.208 48.9663 29.2152 49.0136 29.2157C49.0609 29.2161 49.1083 29.2098 49.1531 29.197C49.1979 29.1843 49.2391 29.1654 49.2743 29.1414Z" fill="#0077FF"/>
<path d="M81.6834 51.331C82.9478 49.9983 83.8674 48.5114 84.3927 46.9503" stroke="#0077FF" stroke-width="0.03" stroke-miterlimit="10"/>
<path d="M82.1352 51.4192C82.0595 51.4598 81.9679 51.4815 81.8754 51.4806C81.783 51.4797 81.6952 51.4564 81.6267 51.4143C81.5888 51.3712 81.5709 51.3202 81.5754 51.2682C81.5799 51.2162 81.6066 51.1656 81.6518 51.1233C81.7302 51.088 81.8204 51.0697 81.9109 51.0705C82.0014 51.0714 82.0882 51.0915 82.1604 51.1281C82.1983 51.1712 82.2162 51.2222 82.2117 51.2743C82.2072 51.3263 82.1805 51.3769 82.1352 51.4192Z" fill="#0077FF"/>
<path d="M84.8454 47.0561C84.8454 47.0561 84.8675 46.8008 84.5644 46.7614C84.4995 46.7278 84.421 46.7094 84.3391 46.7086C84.2571 46.7078 84.1756 46.7247 84.105 46.757C84.105 46.757 84.0829 47.0124 84.3829 47.0882C84.4502 47.1227 84.5336 47.1384 84.6183 47.1325C84.703 47.1266 84.7835 47.0996 84.8454 47.0561Z" fill="#0077FF"/>
<path d="M40.8515 39.8376C41.0172 38.3721 41.6098 36.9345 42.5893 35.6222C43.552 34.2368 44.9197 33.0136 46.5901 32.044" stroke="#0077FF" stroke-width="0.03" stroke-miterlimit="10"/>
<path d="M41.2545 39.82C41.2545 39.82 41.2355 40.0394 40.8311 39.9989C40.7312 39.9844 40.6411 39.9484 40.5729 39.8955C40.5047 39.8426 40.4614 39.7753 40.4489 39.7025C40.4567 39.6695 40.4748 39.6379 40.5018 39.61C40.5288 39.5821 40.5641 39.5586 40.6048 39.5414C40.6456 39.5242 40.6908 39.5136 40.7372 39.5105C40.7835 39.5075 40.8297 39.5119 40.8723 39.5236C40.9722 39.5381 41.0622 39.5742 41.1305 39.6271C41.1987 39.68 41.242 39.7472 41.2545 39.82Z" fill="#0077FF"/>
<path d="M46.8687 32.5034C46.8687 32.5034 46.8907 32.2483 46.897 32.1754C46.8661 32.1509 46.8283 32.1312 46.786 32.1177C46.7436 32.1041 46.6975 32.0969 46.6503 32.0964C46.6031 32.096 46.5558 32.1023 46.5111 32.115C46.4665 32.1278 46.4254 32.1466 46.3903 32.1706C46.3562 32.1908 46.3281 32.2158 46.3079 32.2439C46.2877 32.272 46.2758 32.3025 46.2732 32.3336C46.2705 32.3646 46.277 32.3953 46.2923 32.4238C46.3077 32.4522 46.3314 32.4777 46.362 32.4985C46.362 32.4985 46.7579 32.6117 46.8687 32.5034Z" fill="#0077FF"/>
<path d="M65.6083 49.7914C63.6227 50.2718 61.5423 50.4376 59.5057 50.2777C57.4692 50.1178 55.5233 49.6358 53.7978 48.864L52.6533 48.2743" stroke="#0077FF" stroke-width="0.03" stroke-miterlimit="10"/>
<path d="M65.4667 49.8283C65.5077 49.7975 65.557 49.773 65.6112 49.7564C65.6654 49.7398 65.7234 49.7315 65.7813 49.7321C65.8392 49.7326 65.8957 49.742 65.9469 49.7596C65.9982 49.7772 66.0431 49.8026 66.0787 49.8341C66.1089 49.8515 66.1327 49.8738 66.1482 49.8994C66.1637 49.925 66.1705 49.9531 66.168 49.9815C66.1656 50.0099 66.154 50.0378 66.1341 50.063C66.1142 50.0883 66.0865 50.1101 66.0534 50.1269C65.9828 50.1593 65.9014 50.1762 65.8195 50.1754C65.7377 50.1746 65.6592 50.1562 65.5944 50.1225C65.5519 50.1162 65.5129 50.1021 65.4812 50.0816C65.4495 50.061 65.4261 50.0347 65.4132 50.0052C65.4004 49.9756 65.3986 49.9438 65.408 49.9128C65.4173 49.8818 65.4376 49.8527 65.4667 49.8283Z" fill="#0077FF"/>
<path d="M52.7333 48.2367C52.7068 48.2131 52.6733 48.1942 52.635 48.181C52.5968 48.1679 52.5547 48.1609 52.5115 48.1604C52.4683 48.16 52.4251 48.1662 52.3846 48.1786C52.3442 48.191 52.3074 48.2093 52.2769 48.2323C52.2192 48.2778 52.1848 48.3356 52.1796 48.3956C52.1744 48.4556 52.1988 48.514 52.2485 48.5604C52.3091 48.5996 52.3881 48.6215 52.4716 48.6223C52.5551 48.6231 52.6377 48.6028 52.705 48.5648C52.7391 48.5446 52.7672 48.5196 52.7875 48.4915C52.8077 48.4634 52.8195 48.4328 52.8222 48.4017C52.8249 48.3707 52.8183 48.3399 52.803 48.3115C52.7877 48.283 52.7639 48.2575 52.7333 48.2367Z" fill="#0077FF"/>
<path d="M57.2832 51.7803C59.6465 52.299 62.1429 52.3992 64.6082 52.0744" stroke="#0077FF" stroke-width="0.03" stroke-miterlimit="10"/>
<path d="M57.2501 51.9997C57.16 51.9911 57.078 51.9608 57.0174 51.9138C56.9568 51.8668 56.921 51.8057 56.9158 51.7405C56.9158 51.7405 56.9316 51.5577 57.288 51.5611C57.3862 51.571 57.4742 51.6066 57.5352 51.6611C57.5962 51.7156 57.6261 51.7853 57.6191 51.8569C57.5911 51.9085 57.5378 51.9516 57.4696 51.978C57.4014 52.0044 57.3232 52.0121 57.2501 51.9997Z" fill="#0077FF"/>
<path d="M64.6517 52.2872C64.7015 52.2535 64.7317 52.2078 64.7358 52.16C64.74 52.1121 64.7177 52.066 64.6738 52.0313C64.5299 51.9873 64.3649 51.9857 64.2137 52.027C64.2137 52.027 63.9069 52.024 64.1915 52.2828C64.2565 52.3164 64.3352 52.3348 64.4172 52.3356C64.4993 52.3364 64.581 52.3195 64.6517 52.2872Z" fill="#0077FF"/>
<path d="M64.4424 48.1565C62.876 48.5705 61.2225 48.7285 59.599 48.6192C57.9756 48.51 56.4221 48.1361 55.0486 47.5242L53.9043 46.9354" stroke="#0077FF" stroke-width="0.03" stroke-miterlimit="10"/>
<path d="M64.3007 47.9363C64.3712 47.904 64.4526 47.8871 64.5345 47.8879C64.6163 47.8887 64.6947 47.9071 64.7595 47.9407C64.7897 47.958 64.8135 47.9803 64.829 48.0059C64.8445 48.0314 64.8513 48.0594 64.8488 48.0878C64.8464 48.1161 64.8348 48.144 64.8149 48.1692C64.795 48.1944 64.7674 48.2162 64.7343 48.2329C64.662 48.2611 64.5815 48.2755 64.501 48.2747C64.4205 48.274 64.3427 48.258 64.2754 48.2285C64.2452 48.2112 64.2215 48.1889 64.206 48.1634C64.1905 48.1378 64.1837 48.1098 64.1861 48.0815C64.1886 48.0531 64.2002 48.0252 64.2201 48C64.24 47.9749 64.2676 47.953 64.3007 47.9363Z" fill="#0077FF"/>
<path d="M54.0561 46.7539C54.0561 46.7539 53.649 46.7501 53.5472 46.7491C53.4454 46.7481 53.5283 46.9679 53.5188 47.0773C53.5796 47.1165 53.6589 47.1384 53.7426 47.1392C53.8264 47.14 53.9093 47.1197 53.9768 47.0817C54.0418 47.0407 54.0854 46.9853 54.0999 46.9253C54.1144 46.8653 54.0989 46.8046 54.0561 46.7539Z" fill="#0077FF"/>
<path d="M62.7061 36.7344C64.9431 37.4627 66.7918 38.665 68.0142 40.1865" stroke="#0077FF" stroke-width="0.03" stroke-miterlimit="10"/>
<path d="M67.8335 40.2935C67.902 40.3357 67.9897 40.3591 68.0821 40.36C68.1745 40.3609 68.2661 40.3391 68.3418 40.2983C68.3761 40.2781 68.4042 40.2531 68.4245 40.2249C68.4447 40.1967 68.4566 40.1661 68.4593 40.135C68.462 40.104 68.4554 40.0731 68.4401 40.0446C68.4247 40.0161 68.4009 39.9906 68.3702 39.9697C68.3017 39.9276 68.214 39.9041 68.1216 39.9032C68.0292 39.9024 67.9376 39.9241 67.8619 39.9649C67.8041 40.0104 67.7696 40.0683 67.7644 40.1284C67.7592 40.1885 67.7837 40.2469 67.8335 40.2935Z" fill="#0077FF"/>
<path d="M71.138 40.3126C69.981 38.3751 68.0108 36.765 65.4893 35.6961L64.21 35.2094" stroke="#0077FF" stroke-width="0.03" stroke-miterlimit="10"/>
<path d="M71.7658 39.9661C71.8157 40.0126 71.8402 40.0709 71.835 40.1308C71.8298 40.1907 71.7953 40.2485 71.7374 40.2939C71.6572 40.3251 71.5679 40.3411 71.4785 40.3402C71.3891 40.3394 71.3028 40.3217 71.2281 40.289C71.1974 40.2682 71.1735 40.2427 71.1581 40.2143C71.1427 40.1859 71.1361 40.1551 71.1388 40.1241C71.1415 40.0932 71.1534 40.0626 71.1737 40.0345C71.194 40.0064 71.2222 39.9815 71.2565 39.9613C71.3367 39.9301 71.4259 39.9141 71.5153 39.9149C71.6047 39.9158 71.6911 39.9334 71.7658 39.9661Z" fill="#0077FF"/>
<path d="M64.17 34.8933C64.17 34.8933 63.7116 34.8889 63.6607 34.8884C63.5984 34.9395 63.5613 35.0035 63.5555 35.0696C63.5498 35.1358 63.5758 35.2003 63.6292 35.2526C63.7015 35.2893 63.7884 35.3094 63.879 35.3102C63.9697 35.3111 64.06 35.2927 64.1385 35.2574C64.2008 35.2063 64.2379 35.1424 64.2436 35.0762C64.2493 35.01 64.2234 34.9455 64.17 34.8933Z" fill="#0077FF"/>
<path d="M61.6337 46.6948C59.8445 46.9112 58.0373 46.6797 56.5091 46.0383C56.0827 45.8632 55.6838 45.6561 55.3184 45.4203" stroke="#0077FF" stroke-width="0.03" stroke-miterlimit="10"/>
<path d="M61.5531 46.4795C61.6475 46.4673 61.7432 46.4793 61.8234 46.5134C61.9036 46.5474 61.9631 46.6014 61.9914 46.6657L61.9695 46.9202C61.9222 46.9308 61.8729 46.9343 61.8246 46.9305C61.7763 46.9268 61.7301 46.9158 61.6889 46.8983C61.6477 46.8808 61.6124 46.8572 61.5853 46.8289C61.5582 46.8006 61.5397 46.7683 61.5312 46.734C61.5312 46.734 61.4018 46.478 61.5531 46.4795Z" fill="#0077FF"/>
<path d="M55.3771 45.2376C55.3462 45.213 55.3083 45.1933 55.2659 45.1797C55.2234 45.1662 55.1772 45.1589 55.1299 45.1585C55.0827 45.158 55.0353 45.1644 54.9906 45.1771C54.9459 45.1899 54.9047 45.2088 54.8695 45.2327C54.8118 45.2782 54.7773 45.336 54.7722 45.3961C54.767 45.4561 54.7914 45.5145 54.8411 45.561C54.9096 45.6031 54.9971 45.6266 55.0894 45.6274C55.1817 45.6283 55.2732 45.6066 55.3488 45.5659C55.4065 45.5204 55.4409 45.4625 55.4461 45.4025C55.4513 45.3425 55.4269 45.2841 55.3771 45.2376Z" fill="#0077FF"/>
<path d="M71.9191 81.5348C68.361 83.3061 63.7354 84.1918 58.0423 84.1918C50.7703 84.1918 44.9661 82.0159 40.6296 77.6642C36.3153 73.2907 34.1582 67.4738 34.1582 60.2137C34.1582 52.6037 36.5711 46.3823 41.3968 41.5496C46.2226 36.6949 52.416 34.2676 59.9771 34.2676C64.7361 34.2676 68.7168 34.8908 71.9191 36.1373V45.2562C68.5833 43.3537 64.8028 42.4024 60.5775 42.4024C55.6183 42.4024 51.6376 43.9878 48.6354 47.1587C45.6555 50.3295 44.1655 54.4625 44.1655 59.5577C44.1655 64.5654 45.5888 68.5672 48.4353 71.5631C51.2818 74.559 55.0735 76.057 59.8103 76.057C64.2802 76.057 68.3165 75.0073 71.9191 72.908V81.5348Z" fill="white"/>
<path d="M86.1103 71.5828H72.0712V47.6003H86.1103V51.7653H77.2291V57.0388H85.4954V61.2038H77.2291V67.3842H86.1103V71.5828Z" fill="white"/>
<path d="M118.054 59.4593C118.054 91.0708 91.9864 116.74 59.777 116.74C27.5676 116.74 1.5 91.0708 1.5 59.4593C1.5 27.8477 27.5676 2.17859 59.777 2.17859C91.9864 2.17859 118.054 27.8477 118.054 59.4593Z" stroke="#8115C2" stroke-width="3"/>
<path d="M112.639 56.5136C112.676 57.1639 112.701 57.8174 112.713 58.4738L112.214 58.4832C112.22 58.8078 112.223 59.1332 112.223 59.4592C112.223 59.7853 112.22 60.1106 112.214 60.4353L112.713 60.4447C112.701 61.1011 112.676 61.7546 112.639 62.4049L112.14 62.3766C112.103 63.0265 112.054 63.6731 111.993 64.3163L112.491 64.3636C112.429 65.0179 112.354 65.6688 112.268 66.3158L111.772 66.2495C111.686 66.8939 111.588 67.5345 111.477 68.1712L111.97 68.2564C111.858 68.9028 111.734 69.5452 111.598 70.1832L111.109 70.0791C110.974 70.7149 110.827 71.3463 110.668 71.9732L111.152 72.0961C110.991 72.7324 110.818 73.364 110.633 73.9907L110.153 73.8492C109.97 74.4722 109.774 75.0902 109.567 75.7032L110.041 75.863C109.832 76.4842 109.61 77.1001 109.378 77.7107L108.911 77.5328C108.68 78.1394 108.438 78.7407 108.184 79.3363L108.644 79.532C108.388 80.1354 108.12 80.733 107.841 81.3246L107.389 81.1114C107.112 81.6985 106.825 82.2796 106.526 82.8544L106.97 83.0847C106.668 83.6662 106.356 84.2414 106.033 84.8101L105.598 84.5631C105.278 85.1272 104.947 85.6847 104.606 86.2354L105.031 86.4986C104.686 87.0556 104.331 87.6057 103.966 88.1486L103.551 87.8695C103.189 88.4077 102.817 88.9387 102.435 89.4625L102.839 89.757C102.453 90.2861 102.058 90.8079 101.653 91.3219L101.26 91.0124C100.859 91.5217 100.448 92.0234 100.028 92.5173L100.409 92.8412C99.9844 93.3399 99.5509 93.8306 99.1084 94.3131L98.7399 93.9752C98.3018 94.453 97.8547 94.9227 97.3988 95.384L97.7545 95.7354C97.2946 96.2009 96.8259 96.658 96.3486 97.1064L96.0063 96.742C95.5339 97.1858 95.0531 97.6211 94.5641 98.0475L94.8927 98.4243C94.3996 98.8544 93.8981 99.2756 93.3888 99.6876L93.0743 99.2988C92.5706 99.7063 92.0589 100.105 91.5397 100.494L91.8395 100.894C91.3162 101.286 90.7852 101.669 90.2467 102.042L89.9619 101.631C89.4295 102 88.8897 102.36 88.3429 102.71L88.6124 103.131C88.0615 103.483 87.5034 103.826 86.9386 104.159L86.6849 103.728C86.1267 104.056 85.5618 104.375 84.9905 104.684L85.2281 105.124C84.6531 105.434 84.0716 105.734 83.4838 106.024L83.2626 105.576C82.682 105.862 82.0953 106.138 81.5026 106.404L81.7071 106.86C81.1106 107.127 80.5082 107.384 79.9001 107.63L79.7126 107.167C79.1123 107.409 78.5064 107.641 77.8952 107.863L78.0654 108.333C77.4515 108.555 76.8323 108.766 76.2079 108.966L76.0552 108.49C75.4393 108.688 74.8184 108.875 74.1927 109.05L74.3277 109.531C73.6988 109.708 73.0652 109.873 72.427 110.027L72.3098 109.541C71.6806 109.692 71.0469 109.833 70.409 109.962L70.5082 110.452C69.8691 110.582 69.2258 110.7 68.5785 110.806L68.4974 110.313C67.8597 110.418 67.2182 110.511 66.573 110.593L66.6361 111.089C65.9885 111.172 65.3374 111.242 64.6828 111.302L64.6378 110.804C63.9938 110.862 63.3465 110.909 62.696 110.944L62.7229 111.443C62.0726 111.478 61.4192 111.501 60.7629 111.513L60.7539 111.013C60.4291 111.019 60.1036 111.022 59.7774 111.022C59.4511 111.022 59.1256 111.019 58.8008 111.013L58.7919 111.513C58.1355 111.501 57.4821 111.478 56.8318 111.443L56.8587 110.944C56.2082 110.909 55.5609 110.862 54.9169 110.804L54.872 111.302C54.2173 111.242 53.5662 111.172 52.9187 111.089L52.9818 110.593C52.3365 110.511 51.695 110.418 51.0573 110.313L50.9762 110.806C50.3289 110.7 49.6856 110.582 49.0465 110.452L49.1457 109.962C48.5078 109.833 47.8741 109.692 47.2449 109.541L47.1278 110.027C46.4895 109.873 45.8559 109.708 45.227 109.531L45.362 109.05C44.7363 108.875 44.1154 108.688 43.4995 108.49L43.3468 108.966C42.7225 108.766 42.1032 108.555 41.4894 108.333L41.6595 107.863C41.0483 107.641 40.4424 107.409 39.8421 107.167L39.6547 107.63C39.0466 107.384 38.4441 107.127 37.8476 106.86L38.0521 106.404C37.4594 106.138 36.8727 105.862 36.2921 105.576L36.0709 106.024C35.4832 105.734 34.9017 105.434 34.3267 105.124L34.5643 104.684C33.9929 104.375 33.428 104.056 32.8699 103.728L32.6162 104.159C32.0513 103.826 31.4933 103.483 30.9423 103.131L31.2118 102.71C30.665 102.36 30.1253 102 29.5928 101.631L29.308 102.042C28.7696 101.669 28.2386 101.286 27.7152 100.894L28.015 100.494C27.4958 100.105 26.9842 99.7063 26.4804 99.2988L26.166 99.6875C25.6566 99.2756 25.1552 98.8544 24.662 98.4243L24.9906 98.0475C24.5017 97.6211 24.0209 97.1858 23.5485 96.742L23.2061 97.1064C22.7289 96.658 22.2602 96.2009 21.8002 95.7354L22.1559 95.384C21.7001 94.9226 21.253 94.4529 20.8148 93.9752L20.4463 94.3131C20.0038 93.8306 19.5703 93.3399 19.1462 92.8412L19.5271 92.5173C19.107 92.0234 18.6962 91.5217 18.2948 91.0124L17.9021 91.3219C17.497 90.8078 17.1015 90.2861 16.7158 89.757L17.1198 89.4625C16.738 88.9387 16.366 88.4076 16.0039 87.8695L15.5891 88.1486C15.2238 87.6057 14.8685 87.0556 14.5236 86.4986L14.9487 86.2354C14.6077 85.6847 14.2769 85.1272 13.9565 84.5631L13.5217 84.8101C13.1987 84.2414 12.8862 83.6662 12.5846 83.0847L13.0284 82.8544C12.7302 82.2795 12.4426 81.6985 12.166 81.1114L11.7137 81.3246C11.4349 80.733 11.167 80.1353 10.9104 79.532L11.3705 79.3363C11.1172 78.7407 10.8749 78.1394 10.644 77.5327L10.1767 77.7106C9.94425 77.1001 9.72314 76.4841 9.51359 75.863L9.98736 75.7032C9.78059 75.0902 9.5852 74.4721 9.40144 73.8492L8.92187 73.9907C8.73698 73.3639 8.56376 72.7323 8.40243 72.0961L8.88709 71.9732C8.72813 71.3463 8.58084 70.7148 8.44546 70.0791L7.95643 70.1832C7.82056 69.5452 7.69657 68.9028 7.5847 68.2564L8.07738 68.1711C7.9672 67.5345 7.86888 66.8939 7.78267 66.2495L7.28709 66.3158C7.20052 65.6687 7.12604 65.0179 7.06387 64.3636L7.56162 64.3163C7.50051 63.6731 7.45141 63.0264 7.41455 62.3765L6.91535 62.4048C6.87846 61.7546 6.85372 61.1011 6.84133 60.4447L7.34124 60.4352C7.33511 60.1106 7.33203 59.7853 7.33203 59.4592C7.33203 59.1332 7.33511 58.8078 7.34124 58.4832L6.84133 58.4738C6.85372 57.8173 6.87847 57.1639 6.91535 56.5136L7.41455 56.5419C7.45141 55.892 7.50051 55.2454 7.56163 54.6021L7.06387 54.5548C7.12604 53.9005 7.20052 53.2497 7.28709 52.6027L7.78268 52.669C7.86889 52.0246 7.9672 51.3839 8.07738 50.7473L7.58471 50.662C7.69658 50.0156 7.82056 49.3733 7.95643 48.7352L8.44547 48.8394C8.58085 48.2036 8.72814 47.5721 8.8871 46.9452L8.40244 46.8223C8.56376 46.1861 8.73699 45.5545 8.92188 44.9278L9.40144 45.0692C9.5852 44.4463 9.7806 43.8283 9.98737 43.2153L9.5136 43.0555C9.72314 42.4343 9.94426 41.8183 10.1767 41.2078L10.644 41.3857C10.875 40.779 11.1172 40.1778 11.3705 39.5822L10.9104 39.3865C11.167 38.7831 11.4349 38.1855 11.7137 37.5939L12.166 37.807C12.4426 37.22 12.7302 36.6389 13.0284 36.064L12.5846 35.8338C12.8863 35.2523 13.1987 34.677 13.5217 34.1084L13.9565 34.3553C14.2769 33.7913 14.6077 33.2338 14.9487 32.6831L14.5236 32.4198C14.8685 31.8629 15.2238 31.3128 15.5891 30.7699L16.0039 31.049C16.366 30.5108 16.738 29.9797 17.1198 29.456L16.7158 29.1614C17.1015 28.6323 17.497 28.1106 17.9021 27.5966L18.2948 27.9061C18.6962 27.3968 19.107 26.8951 19.5271 26.4012L19.1462 26.0772C19.5704 25.5786 20.0038 25.0879 20.4463 24.6054L20.8148 24.9433C21.253 24.4655 21.7001 23.9958 22.1559 23.5345L21.8002 23.1831C22.2602 22.7176 22.7289 22.2605 23.2061 21.8121L23.5485 22.1765C24.0209 21.7326 24.5017 21.2974 24.9906 20.871L24.662 20.4942C25.1552 20.0641 25.6566 19.6429 26.166 19.2309L26.4804 19.6197C26.9842 19.2122 27.4958 18.8138 28.0151 18.4247L27.7152 18.0246C28.2386 17.6324 28.7696 17.2496 29.308 16.8764L29.5928 17.2873C30.1253 16.9182 30.665 16.5587 31.2118 16.2089L30.9423 15.7877C31.4933 15.4352 32.0513 15.0926 32.6162 14.76L32.8699 15.1908C33.428 14.8622 33.9929 14.5434 34.5643 14.2349L34.3267 13.7949C34.9017 13.4844 35.4832 13.184 36.0709 12.8941L36.2921 13.3426C36.8727 13.0562 37.4594 12.7801 38.0521 12.5145L37.8477 12.0583C38.4442 11.791 39.0466 11.5343 39.6547 11.2884L39.8421 11.7519C40.4424 11.5092 41.0483 11.2771 41.6595 11.0559L41.4894 10.5857C42.1033 10.3635 42.7225 10.1522 43.3468 9.95197L43.4995 10.4281C44.1154 10.2306 44.7363 10.044 45.362 9.86848L45.227 9.38705C45.8559 9.21068 46.4896 9.04545 47.1278 8.8916L47.245 9.37768C47.8742 9.22601 48.5078 9.08549 49.1457 8.95637L49.0465 8.46631C49.6856 8.33694 50.3289 8.2189 50.9762 8.11241L51.0574 8.60578C51.695 8.50087 52.3365 8.40727 52.9818 8.3252L52.9187 7.8292C53.5662 7.74684 54.2174 7.67599 54.872 7.61685L54.917 8.11482C55.5609 8.05665 56.2082 8.00992 56.8587 7.97485L56.8318 7.47557C57.4821 7.44051 58.1355 7.41698 58.7919 7.4052L58.8009 7.90512C59.1256 7.89929 59.4512 7.89636 59.7774 7.89636C60.1036 7.89636 60.4291 7.89929 60.7539 7.90512L60.7629 7.4052C61.4192 7.41698 62.0727 7.44051 62.723 7.47557L62.696 7.97485C63.3465 8.00992 63.9939 8.05665 64.6378 8.11483L64.6828 7.61685C65.3374 7.67599 65.9886 7.74684 66.6361 7.8292L66.573 8.32521C67.2182 8.40728 67.8598 8.50087 68.4974 8.60578L68.5786 8.11241C69.2258 8.21891 69.8691 8.33695 70.5082 8.46631L70.409 8.95637C71.0469 9.0855 71.6806 9.22601 72.3098 9.37769L72.427 8.89161C73.0652 9.04546 73.6989 9.21068 74.3278 9.38706L74.1927 9.86848C74.8184 10.044 75.4394 10.2306 76.0553 10.4281L76.2079 9.95198C76.8323 10.1522 77.4515 10.3635 78.0654 10.5857L77.8952 11.0559C78.5064 11.2771 79.1123 11.5092 79.7126 11.7519L79.9001 11.2884C80.5082 11.5343 81.1106 11.791 81.7071 12.0583L81.5026 12.5146C82.0953 12.7801 82.6821 13.0562 83.2626 13.3426L83.4838 12.8941C84.0716 13.184 84.6531 13.4844 85.2281 13.7949L84.9905 14.2349C85.5618 14.5434 86.1267 14.8622 86.6849 15.1908L86.9386 14.76C87.5034 15.0926 88.0615 15.4352 88.6124 15.7877L88.343 16.2089C88.8897 16.5587 89.4295 16.9182 89.9619 17.2873L90.2468 16.8764C90.7852 17.2496 91.3162 17.6324 91.8395 18.0246L91.5397 18.4247C92.0589 18.8138 92.5706 19.2122 93.0743 19.6197L93.3888 19.2309C93.8982 19.6429 94.3996 20.0641 94.8927 20.4942L94.5641 20.871C95.0531 21.2974 95.5339 21.7327 96.0063 22.1765L96.3486 21.8121C96.8259 22.2605 97.2946 22.7176 97.7545 23.1831L97.3988 23.5345C97.8547 23.9958 98.3018 24.4655 98.7399 24.9433L99.1084 24.6054C99.5509 25.0879 99.9844 25.5786 100.409 26.0772L100.028 26.4012C100.448 26.8951 100.859 27.3968 101.26 27.9061L101.653 27.5966C102.058 28.1106 102.453 28.6323 102.839 29.1614L102.435 29.456C102.817 29.9797 103.189 30.5108 103.551 31.049L103.966 30.7699C104.331 31.3128 104.686 31.8629 105.031 32.4198L104.606 32.6831C104.947 33.2338 105.278 33.7913 105.598 34.3553L106.033 34.1084C106.356 34.677 106.668 35.2523 106.97 35.8338L106.526 36.0641C106.825 36.6389 107.112 37.22 107.389 37.8071L107.841 37.5939C108.12 38.1855 108.388 38.7831 108.644 39.3865L108.184 39.5822C108.438 40.1778 108.68 40.7791 108.911 41.3857L109.378 41.2078C109.61 41.8184 109.832 42.4343 110.041 43.0555L109.567 43.2153C109.774 43.8283 109.97 44.4463 110.153 45.0693L110.633 44.9278C110.818 45.5545 110.991 46.1861 111.152 46.8224L110.668 46.9453C110.827 47.5722 110.974 48.2036 111.109 48.8394L111.598 48.7353C111.734 49.3733 111.858 50.0157 111.97 50.6621L111.477 50.7473C111.588 51.384 111.686 52.0246 111.772 52.669L112.268 52.6027C112.354 53.2497 112.429 53.9005 112.491 54.5549L111.993 54.6022C112.054 55.2454 112.103 55.892 112.14 56.5419L112.639 56.5136Z" stroke="#B43131" stroke-dasharray="2 2"/>
<path d="M107.806 59.4594C107.806 85.5057 86.3264 106.663 59.7766 106.663C33.2267 106.663 11.7471 85.5057 11.7471 59.4594C11.7471 33.413 33.2267 12.2554 59.7766 12.2554C86.3264 12.2554 107.806 33.413 107.806 59.4594Z" stroke="url(#paint0_linear_540_2406)" stroke-width="3"/>
<defs>
<linearGradient id="paint0_linear_540_2406" x1="10.2471" y1="10.7554" x2="38.4738" y2="125.576" gradientUnits="userSpaceOnUse">
<stop stop-color="#D9A067"/>
<stop offset="0.425859" stop-color="#04B5E2"/>
<stop offset="1" stop-color="#BE68BD"/>
</linearGradient>
</defs>
</svg>
