<svg width="73" height="71" viewBox="0 0 73 71" fill="none" xmlns="http://www.w3.org/2000/svg">
<path d="M58.867 33.658C58.867 33.658 58.7181 33.6566 58.599 33.6554C58.5746 33.6264 58.5631 33.5923 58.5661 33.5576C58.569 33.5228 58.5863 33.489 58.6156 33.4605C58.6615 33.4395 58.7143 33.4286 58.7673 33.4291C58.8203 33.4296 58.8711 33.4415 58.9134 33.4634C58.9134 33.4634 58.9339 33.572 58.867 33.658Z" fill="#0077FF"/>
<path d="M52.4877 13.554C52.4431 13.5271 52.3869 13.5122 52.3277 13.5116C52.2686 13.5111 52.2099 13.5249 52.1608 13.5509C52.1349 13.5649 52.1134 13.5829 52.0979 13.6035C52.0824 13.6241 52.0733 13.6467 52.0713 13.6698C52.0694 13.6928 52.0746 13.7156 52.0865 13.7365C52.0985 13.7574 52.117 13.7757 52.1405 13.7902C52.1587 13.8061 52.1811 13.8191 52.2066 13.8284C52.2321 13.8377 52.26 13.8432 52.2889 13.8445C52.3178 13.8458 52.347 13.8429 52.3749 13.836C52.4028 13.829 52.4289 13.8182 52.4515 13.8041C52.4742 13.7901 52.4931 13.773 52.5071 13.7539C52.5211 13.7348 52.5299 13.7141 52.5331 13.6929C52.5363 13.6717 52.5338 13.6504 52.5256 13.6303C52.5175 13.6102 52.504 13.5917 52.4858 13.5758L52.4877 13.554Z" fill="#0077FF"/>
<path d="M12.6249 17.7275C9.21524 25.0408 14.2793 33.5077 24.5199 37.8487C34.7604 42.1898 47.7401 41.463 55.2517 35.9604" stroke="#0077FF" stroke-width="0.03" stroke-miterlimit="10"/>
<path d="M10.6249 17.7275C7.21524 25.0408 12.2793 33.5077 22.5199 37.8487C32.7604 42.1898 45.7401 41.463 53.2517 35.9604" stroke="#0077FF" stroke-width="0.03" stroke-miterlimit="10"/>
<path d="M62.3969 25.0535C64.2751 17.4206 57.549 9.66628 46.5504 6.60891C35.5517 3.55154 22.8799 5.82866 16.5814 12.1659" stroke="#0077FF" stroke-width="0.03" stroke-miterlimit="10"/>
<path d="M62.3969 25.8216C64.2751 18.1887 57.549 10.4343 46.5504 7.37698C35.5517 4.31961 22.8799 6.59673 16.5814 12.9339" stroke="#0077FF" stroke-width="0.03" stroke-miterlimit="10"/>
<path d="M62.3969 26.5894C64.2751 18.9565 57.549 11.2022 46.5504 8.1448C35.5517 5.08743 22.8799 7.36455 16.5814 13.7017" stroke="#0077FF" stroke-width="0.03" stroke-miterlimit="10"/>
<path d="M48.5956 40.0895C57.912 37.0651 62.5965 28.4703 59.8227 19.7431C57.0489 11.016 47.5645 4.17186 37.2061 3.65179" stroke="#0077FF" stroke-width="0.03" stroke-miterlimit="10"/>
<path d="M46.4765 41.0858C55.7929 38.0614 60.4774 29.4666 57.7036 20.7395C54.9298 12.0123 45.4454 5.1682 35.087 4.64813" stroke="#0077FF" stroke-width="0.03" stroke-miterlimit="10"/>
<path d="M12.6249 20.0314C9.21524 27.3448 14.2793 35.8116 24.5199 40.1527C34.7604 44.4937 47.7401 43.7669 55.2517 38.2644" stroke="#0077FF" stroke-width="0.03" stroke-miterlimit="10"/>
<path d="M12.6249 21.5675C9.21524 28.8809 14.2793 37.3478 24.5199 41.6888C34.7604 46.0298 47.7401 45.303 55.2517 39.8005" stroke="#0077FF" stroke-width="0.03" stroke-miterlimit="10"/>
<path d="M11.4029 17.9532C11.4375 17.9321 11.481 17.9207 11.525 17.9211C11.569 17.9215 11.6104 17.9338 11.6414 17.9555C11.6951 17.9701 11.7399 17.9973 11.7692 18.0329C11.7984 18.0686 11.8105 18.1107 11.8036 18.1531C11.769 18.1742 11.7255 18.1856 11.6815 18.1852C11.6375 18.1848 11.5961 18.1725 11.5651 18.1508C11.5114 18.1362 11.4666 18.109 11.4373 18.0733C11.4081 18.0377 11.396 17.9955 11.4029 17.9532Z" fill="#0077FF"/>
<path d="M55.9903 36.3574C56.0104 36.3453 56.027 36.3304 56.0388 36.3136C56.0507 36.2968 56.0577 36.2786 56.0593 36.26C56.0609 36.2415 56.057 36.2231 56.048 36.2061C56.039 36.1891 56.025 36.1739 56.007 36.1615C55.9589 36.14 55.9033 36.1284 55.8457 36.1278C55.7881 36.1272 55.7306 36.1378 55.6789 36.1583C55.645 36.1854 55.6248 36.22 55.6217 36.2558C55.6187 36.2916 55.633 36.3265 55.6623 36.3542C55.707 36.3812 55.7635 36.3961 55.8228 36.3967C55.8822 36.3972 55.9411 36.3834 55.9903 36.3574Z" fill="#0077FF"/>
<path d="M47.0219 10.7822C34.5891 5.47525 19.9927 7.88924 13.6148 15.2768" stroke="#0077FF" stroke-width="0.03" stroke-miterlimit="10"/>
<path d="M47.2298 10.8594C47.2688 10.8921 47.2885 10.935 47.2847 10.9795C47.2809 11.0239 47.254 11.0664 47.2095 11.0983C47.1604 11.1242 47.1017 11.138 47.0426 11.1374C46.9834 11.1368 46.9271 11.122 46.8826 11.0951C46.8493 11.0605 46.8333 11.0183 46.837 10.9751C46.8406 10.9319 46.8638 10.8901 46.9029 10.8562C46.9519 10.8303 47.0106 10.8165 47.0698 10.8171C47.1289 10.8176 47.1852 10.8325 47.2298 10.8594Z" fill="#0077FF"/>
<path d="M13.4457 14.7866C13.4093 14.8171 13.3877 14.8553 13.3843 14.8947C13.381 14.9342 13.3961 14.9727 13.4273 15.0038C13.4428 15.0179 13.4625 15.0292 13.4849 15.037C13.5073 15.0448 13.532 15.049 13.5573 15.0492C13.5826 15.0495 13.6079 15.0458 13.6316 15.0384C13.6553 15.031 13.6769 15.0201 13.6948 15.0064C13.7285 14.9793 13.7487 14.9449 13.7518 14.9092C13.7548 14.8734 13.7405 14.8386 13.7114 14.811C13.7114 14.811 13.5052 14.7872 13.4457 14.7866Z" fill="#0077FF"/>
<path d="M44.6181 39.3285C37.9985 40.5037 31.1619 39.7286 25.5088 37.1619" stroke="#0077FF" stroke-width="0.03" stroke-miterlimit="10"/>
<path d="M44.6164 39.2452C44.6587 39.2285 44.7058 39.2199 44.7529 39.2204C44.8001 39.2208 44.8457 39.2303 44.885 39.2479C44.9107 39.2684 44.9236 39.2958 44.9212 39.3242C44.9188 39.3526 44.9012 39.3797 44.8721 39.3998C44.8298 39.4165 44.7827 39.4251 44.7355 39.4246C44.6884 39.4242 44.6428 39.4147 44.6034 39.3972C44.5835 39.3748 44.574 39.3481 44.5763 39.3209C44.5786 39.2936 44.5926 39.2672 44.6164 39.2452Z" fill="#0077FF"/>
<path d="M25.4728 37.0538C25.4393 37.0358 25.3985 37.0259 25.3559 37.0254C25.3132 37.025 25.2708 37.0341 25.2343 37.0515C25.2078 37.0767 25.1922 37.1069 25.1895 37.1379C25.1869 37.1689 25.1974 37.1993 25.2196 37.2249C25.2196 37.2249 25.4282 37.227 25.4581 37.2273C25.4894 37.2037 25.5083 37.173 25.511 37.141C25.5137 37.109 25.5001 37.078 25.4728 37.0538Z" fill="#0077FF"/>
<path d="M26.1712 10.2816C26.1111 10.2949 26.0474 10.2906 25.9937 10.2698C25.9401 10.249 25.9007 10.2133 25.8841 10.1703C25.8662 10.1579 25.8524 10.1428 25.8434 10.1259C25.8345 10.1089 25.8306 10.0906 25.8322 10.0722C25.8338 10.0537 25.8407 10.0355 25.8525 10.0188C25.8643 10.0021 25.8807 9.98722 25.9007 9.97519C25.9603 9.96674 26.0211 9.97314 26.0732 9.99334C26.1253 10.0135 26.1657 10.0464 26.1878 10.0865C26.2121 10.1155 26.2235 10.1497 26.2205 10.1845C26.2176 10.2193 26.2004 10.2531 26.1712 10.2816Z" fill="#0077FF"/>
<path d="M20.4739 35.132C13.5579 30.6151 10.6876 23.3485 14.4177 17.2669C15.9119 14.8701 18.3183 12.8537 21.3032 11.4972" stroke="#0077FF" stroke-width="0.03" stroke-miterlimit="10"/>
<path d="M21.4359 35.0456C21.4359 35.0456 21.4249 35.1756 21.4212 35.219C21.4033 35.2326 21.3818 35.2435 21.3581 35.2509C21.3344 35.2582 21.3091 35.2619 21.2839 35.2617C21.2586 35.2614 21.2339 35.2573 21.2116 35.2495C21.1892 35.2416 21.1695 35.2304 21.154 35.2164C21.1364 35.2061 21.1226 35.1929 21.1136 35.1777C21.1045 35.1626 21.1006 35.1459 21.102 35.1291C21.1034 35.1123 21.1102 35.0958 21.1218 35.0808C21.1334 35.0659 21.1494 35.053 21.1687 35.043C21.2115 35.0282 21.2579 35.0207 21.3043 35.0212C21.3507 35.0216 21.3958 35.03 21.4359 35.0456Z" fill="#0077FF"/>
<path d="M21.1839 11.74C21.2047 11.726 21.2218 11.7093 21.2341 11.6908C21.2463 11.6723 21.2535 11.6524 21.2552 11.6322C21.2569 11.612 21.2531 11.592 21.244 11.5733C21.2349 11.5546 21.2207 11.5376 21.2022 11.5233C21.1842 11.5087 21.1621 11.497 21.1374 11.4889C21.1126 11.4809 21.0857 11.4766 21.0581 11.4763C21.0306 11.476 21.0029 11.4798 20.9769 11.4874C20.9508 11.4949 20.9268 11.5062 20.9063 11.5204C20.9063 11.5204 20.8953 11.6504 20.8879 11.7371C20.9299 11.759 20.9804 11.7709 21.0331 11.7714C21.0858 11.7719 21.1382 11.761 21.1839 11.74Z" fill="#0077FF"/>
<path d="M20.0323 33.0998C18.3264 31.755 16.9669 30.1908 16.0146 28.4773" stroke="#0077FF" stroke-width="0.03" stroke-miterlimit="10"/>
<path d="M20.2137 33.0327C20.2409 33.0569 20.2545 33.0879 20.2518 33.12C20.2491 33.152 20.2302 33.1827 20.1989 33.2063C20.1578 33.2255 20.1102 33.2356 20.0624 33.2351C20.0146 33.2346 19.9689 33.2237 19.931 33.2037C19.9038 33.1796 19.8902 33.1485 19.8929 33.1165C19.8956 33.0845 19.9145 33.0537 19.9458 33.0301C19.9853 33.0075 20.0338 32.9954 20.0828 32.9959C20.1318 32.9964 20.1781 33.0094 20.2137 33.0327Z" fill="#0077FF"/>
<path d="M15.9278 28.4547C15.8885 28.4372 15.843 28.4277 15.7959 28.4273C15.7488 28.4268 15.7018 28.4354 15.6595 28.4521C15.6305 28.4721 15.6129 28.4992 15.6105 28.5275C15.6081 28.5559 15.621 28.5833 15.6466 28.6038C15.686 28.6213 15.7314 28.6308 15.7785 28.6313C15.8256 28.6317 15.8727 28.6232 15.9149 28.6064C15.9149 28.6064 15.9521 28.52 15.9278 28.4547Z" fill="#0077FF"/>
<path d="M57.2301 25.9204C57.2981 28.732 56.0005 31.5195 53.5652 33.7933C48.451 38.6373 39.123 40.2072 30.8459 38.2262" stroke="#0077FF" stroke-width="0.03" stroke-miterlimit="10"/>
<path d="M57.0515 26.2257C57.0624 26.1835 57.094 26.1449 57.1402 26.1173C57.1865 26.0897 57.2443 26.0749 57.3026 26.0758C57.3589 26.08 57.4112 26.0972 57.4516 26.125C57.4921 26.1527 57.5188 26.1896 57.5278 26.2303C57.5291 26.2572 57.5206 26.2843 57.5031 26.3087C57.4856 26.3331 57.4597 26.3539 57.428 26.3691C57.3964 26.3843 57.3602 26.3933 57.3231 26.3951C57.2861 26.397 57.2495 26.3916 57.2172 26.3796C57.174 26.3661 57.1364 26.3451 57.1075 26.3183C57.0787 26.2915 57.0595 26.2597 57.0515 26.2257Z" fill="#0077FF"/>
<path d="M31.0371 37.8311L30.8584 37.8293C30.8584 37.8293 30.8473 37.9598 30.8455 37.9815C30.8436 38.0033 31.054 37.9836 31.054 37.9836C31.054 37.9836 31.1545 37.854 31.0371 37.8311Z" fill="#0077FF"/>
<path d="M50.9795 16.2581C53.5245 18.1853 55.3348 20.5797 56.2421 23.2188" stroke="#0077FF" stroke-width="0.03" stroke-miterlimit="10"/>
<path d="M50.5242 16.3649C50.5006 16.3528 50.4818 16.3365 50.4695 16.3173C50.4572 16.2982 50.4517 16.277 50.4535 16.2555C50.4553 16.2339 50.4644 16.2128 50.48 16.194C50.4955 16.1751 50.5171 16.1592 50.5427 16.1475C50.5895 16.1174 50.6495 16.1009 50.7104 16.1015C50.7714 16.1021 50.8285 16.1197 50.8701 16.1507C50.8937 16.1628 50.9125 16.1792 50.9248 16.1983C50.9371 16.2174 50.9426 16.2387 50.9408 16.2602C50.939 16.2817 50.9299 16.3028 50.9143 16.3217C50.8988 16.3405 50.8772 16.3565 50.8517 16.3681C50.8306 16.386 50.8045 16.4004 50.7753 16.4102C50.7461 16.42 50.7145 16.4249 50.683 16.4246C50.6514 16.4243 50.6208 16.4187 50.5933 16.4084C50.5658 16.3981 50.5421 16.3832 50.5242 16.3649Z" fill="#0077FF"/>
<path d="M56.3563 23.2397C56.3986 23.2616 56.4494 23.2735 56.5025 23.274C56.5555 23.2746 56.6082 23.2636 56.6541 23.2426C56.6806 23.2175 56.6963 23.1873 56.6989 23.1564C56.7015 23.1254 56.6911 23.095 56.6689 23.0693C56.6287 23.0443 56.5773 23.0304 56.5232 23.0299C56.4691 23.0294 56.4154 23.0423 56.3711 23.0665C56.3446 23.0916 56.3289 23.1218 56.3263 23.1527C56.3237 23.1837 56.3341 23.2141 56.3563 23.2397Z" fill="#0077FF"/>
<path d="M41.1982 11.9124C42.6618 12.304 44.0704 12.7884 45.4083 13.3603C46.7455 13.9359 48.0081 14.5954 49.1826 15.3316" stroke="#0077FF" stroke-width="0.03" stroke-miterlimit="10"/>
<path d="M40.994 12.0853C40.994 12.0853 40.7969 11.9529 41.0125 11.8681C41.0331 11.8538 41.0572 11.8426 41.0834 11.835C41.1096 11.8274 41.1373 11.8236 41.165 11.8239C41.1927 11.8241 41.2198 11.8284 41.2446 11.8365C41.2695 11.8446 41.2916 11.8563 41.3098 11.871C41.341 11.9021 41.3561 11.9406 41.3527 11.9801C41.3494 12.0196 41.3277 12.0577 41.2913 12.0882C41.2707 12.1025 41.2466 12.1137 41.2204 12.1213C41.1942 12.1289 41.1665 12.1327 41.1388 12.1324C41.1111 12.1321 41.084 12.1278 41.0592 12.1197C41.0343 12.1117 41.0121 12.1 40.994 12.0853Z" fill="#0077FF"/>
<path d="M49.1562 15.5245C49.1978 15.5555 49.2549 15.5731 49.3157 15.5737C49.3766 15.5743 49.4365 15.5578 49.4833 15.5277C49.5043 15.5137 49.5215 15.497 49.5338 15.4784C49.5461 15.4599 49.5533 15.4399 49.5551 15.4197C49.5568 15.3994 49.553 15.3793 49.5438 15.3606C49.5347 15.3418 49.5204 15.3248 49.5018 15.3104C49.4602 15.2794 49.4031 15.2618 49.3423 15.2612C49.2814 15.2606 49.2214 15.2771 49.1746 15.3072C49.1536 15.3212 49.1365 15.338 49.1242 15.3565C49.1119 15.3751 49.1047 15.395 49.1029 15.4153C49.1012 15.4355 49.105 15.4556 49.1142 15.4743C49.1233 15.4931 49.1376 15.5102 49.1562 15.5245Z" fill="#0077FF"/>
<path d="M15.3766 28.2315C14.5061 26.6247 14.1 24.8896 14.183 23.1311C14.266 21.3726 14.8364 19.6273 15.8595 18.0008C19.4983 12.4848 28.1498 9.7066 37.2033 10.9224" stroke="#0077FF" stroke-width="0.03" stroke-miterlimit="10"/>
<path d="M15.611 27.9581L15.5983 28.1093C15.5495 28.1086 15.5026 28.0979 15.4628 28.0784C15.423 28.059 15.3919 28.0315 15.373 27.999C15.373 27.999 15.3857 27.8479 15.3857 27.8479C15.4355 27.8457 15.4841 27.8552 15.5246 27.8751C15.5651 27.8949 15.5954 27.924 15.611 27.9581Z" fill="#0077FF"/>
<path d="M37.1685 11.3443C37.1979 11.3477 37.2282 11.3464 37.2575 11.3404C37.2867 11.3345 37.3141 11.324 37.3379 11.3098C37.3616 11.2956 37.3811 11.2779 37.3951 11.258C37.409 11.2381 37.417 11.2164 37.4186 11.1944C37.4249 11.1699 37.424 11.1449 37.416 11.1211C37.408 11.0974 37.3931 11.0754 37.3722 11.0566C37.3513 11.0379 37.325 11.0228 37.2949 11.0125C37.2649 11.0021 37.2319 10.9967 37.198 10.9965C37.1726 10.9931 37.1462 10.9938 37.1206 10.9987C37.095 11.0036 37.071 11.0124 37.0501 11.0247C37.0293 11.0369 37.0121 11.0523 36.9999 11.0696C36.9877 11.0869 36.9807 11.1058 36.9795 11.1249C36.9663 11.1735 36.9785 11.2231 37.0135 11.2637C37.0486 11.3044 37.1039 11.3331 37.1685 11.3443Z" fill="#0077FF"/>
<path d="M20.6908 32.2353C19.6459 31.3684 18.7381 30.4163 17.9834 29.3958" stroke="#0077FF" stroke-width="0.03" stroke-miterlimit="10"/>
<path d="M18.1498 29.3553C18.1119 29.3353 18.066 29.3244 18.0181 29.3239C17.9703 29.3234 17.9226 29.3335 17.8813 29.3527C17.8619 29.3627 17.8458 29.3756 17.8341 29.3906C17.8225 29.4056 17.8157 29.4222 17.8143 29.4391C17.8128 29.456 17.8168 29.4727 17.8259 29.4879C17.8349 29.503 17.8489 29.5163 17.8665 29.5266C17.9044 29.5466 17.9503 29.5576 17.9982 29.5581C18.0461 29.5585 18.0938 29.5485 18.135 29.5292C18.1544 29.5193 18.1706 29.5063 18.1822 29.4913C18.1939 29.4763 18.2007 29.4597 18.2021 29.4429C18.2036 29.426 18.1996 29.4093 18.1905 29.3941C18.1814 29.3789 18.1675 29.3656 18.1498 29.3553Z" fill="#0077FF"/>
<path d="M29.8824 12.3517C32.0166 12.077 34.1696 12.1042 36.2611 12.4321" stroke="#0077FF" stroke-width="0.03" stroke-miterlimit="10"/>
<path d="M29.9273 12.4542C29.8684 12.4603 29.8097 12.4501 29.7627 12.4256C29.7157 12.4011 29.6838 12.3641 29.6733 12.3219C29.6733 12.3219 29.6879 12.1489 29.6879 12.1489C29.7176 12.1427 29.7485 12.1413 29.7783 12.1448C29.8082 12.1484 29.8363 12.1568 29.8605 12.1695C29.8848 12.1821 29.9047 12.1987 29.9188 12.218C29.9328 12.2373 29.9407 12.2589 29.9419 12.2812C29.9419 12.2812 30.045 12.4554 29.9273 12.4542Z" fill="#0077FF"/>
<path d="M36.2562 12.5428C36.3065 12.538 36.3536 12.5202 36.3888 12.4926C36.4239 12.4649 36.4447 12.4294 36.4473 12.3926C36.4512 12.3465 36.43 12.3021 36.3882 12.2691C36.3464 12.2361 36.2875 12.2172 36.2245 12.2166C36.1694 12.2161 36.1151 12.2316 36.0737 12.2597C36.0323 12.2878 36.0071 12.3263 36.0037 12.3666C36.007 12.4146 36.0346 12.4592 36.0812 12.4917C36.1278 12.5243 36.1902 12.5425 36.2562 12.5428Z" fill="#0077FF"/>
<path d="M16.4497 27.1394C15.1816 24.3622 15.4396 21.2746 17.1694 18.5271C18.1046 17.1564 19.4022 15.9305 20.9807 14.9264C22.5591 13.9223 24.3843 13.1617 26.3417 12.6924" stroke="#0077FF" stroke-width="0.03" stroke-miterlimit="10"/>
<path d="M16.6942 27.0183L16.6814 27.1695C16.6296 27.1668 16.5807 27.1529 16.5409 27.1295C16.5012 27.106 16.4724 27.074 16.4582 27.0376L16.4691 26.9081C16.4947 26.9017 16.5216 26.8995 16.5478 26.9019C16.5741 26.9042 16.599 26.911 16.6207 26.9216C16.6424 26.9322 16.6602 26.9464 16.673 26.9632C16.6857 26.9799 16.6929 26.9988 16.6942 27.0183Z" fill="#0077FF"/>
<path d="M26.4467 13.0236C26.4668 13.0116 26.4833 12.9967 26.4951 12.9799C26.507 12.9632 26.5139 12.9449 26.5155 12.9264C26.5171 12.9079 26.5132 12.8896 26.5042 12.8726C26.4952 12.8556 26.4813 12.8404 26.4633 12.828C26.4232 12.8029 26.3719 12.789 26.3178 12.7884C26.2637 12.7879 26.2101 12.8008 26.1657 12.8251C26.1447 12.8391 26.1276 12.8559 26.1153 12.8744C26.1029 12.893 26.0957 12.913 26.094 12.9332C26.0922 12.9534 26.0961 12.9735 26.1052 12.9923C26.1144 13.0111 26.1287 13.0281 26.1473 13.0425C26.1909 13.0647 26.2445 13.0749 26.299 13.0715C26.3535 13.0681 26.4056 13.0512 26.4467 13.0236Z" fill="#0077FF"/>
<path d="M49.9013 17.2026C55.8733 21.9144 56.8217 28.4818 51.9395 33.1957C49.4703 35.3064 46.2059 36.8367 42.5944 37.5765C38.9829 38.3163 35.2015 38.2293 31.7693 37.3274" stroke="#0077FF" stroke-width="0.03" stroke-miterlimit="10"/>
<path d="M49.4931 17.4988C49.4745 17.4844 49.4602 17.4674 49.4511 17.4486C49.4419 17.4298 49.4381 17.4097 49.4398 17.3895C49.4416 17.3692 49.4488 17.3492 49.4611 17.3307C49.4734 17.3121 49.4906 17.2954 49.5116 17.2814C49.5584 17.2512 49.6185 17.2348 49.6794 17.2354C49.7403 17.2359 49.7975 17.2536 49.8391 17.2846C49.8626 17.2967 49.8814 17.3131 49.8938 17.3322C49.9061 17.3513 49.9116 17.3725 49.9097 17.394C49.9079 17.4156 49.8988 17.4367 49.8833 17.4555C49.8677 17.4744 49.8462 17.4903 49.8206 17.502C49.7738 17.5321 49.7137 17.5486 49.6528 17.548C49.5919 17.5474 49.5348 17.5298 49.4931 17.4988Z" fill="#0077FF"/>
<path d="M31.7781 37.0338L31.5674 37.0317C31.5727 37.0671 31.5911 37.1002 31.6206 37.1277C31.6501 37.1551 31.6896 37.1759 31.7349 37.1877L31.9456 37.1898C31.9493 37.1524 31.9343 37.116 31.9035 37.0873C31.8727 37.0586 31.8281 37.0396 31.7781 37.0338Z" fill="#0077FF"/>
<path d="M19.8136 17.8404C21.1964 16.4617 23.0256 15.3482 25.1256 14.6067" stroke="#0077FF" stroke-width="0.03" stroke-miterlimit="10"/>
<path d="M19.9836 17.8942C19.9836 17.8942 19.8046 17.8924 19.6852 17.8913C19.656 17.8636 19.6416 17.8287 19.6447 17.793C19.6477 17.7572 19.668 17.7227 19.7019 17.6956C19.7463 17.6713 19.8001 17.6584 19.8543 17.6589C19.9086 17.6594 19.96 17.6734 20.0003 17.6985C20.0248 17.7276 20.0363 17.7618 20.0333 17.7967C20.0304 17.8316 20.013 17.8656 19.9836 17.8942Z" fill="#0077FF"/>
<path d="M25.2327 14.8163C25.2537 14.8023 25.2709 14.7855 25.2832 14.767C25.2955 14.7484 25.3027 14.7285 25.3044 14.7082C25.3061 14.688 25.3023 14.6679 25.2932 14.6492C25.284 14.6304 25.2698 14.6133 25.2512 14.599C25.2111 14.5739 25.1598 14.5599 25.1057 14.5594C25.0517 14.5589 24.9981 14.5718 24.9538 14.5961C24.9328 14.6101 24.9156 14.6268 24.9033 14.6454C24.891 14.6639 24.8838 14.6839 24.8821 14.7041C24.8803 14.7244 24.8842 14.7444 24.8933 14.7632C24.9024 14.782 24.9167 14.799 24.9353 14.8134C24.9754 14.8385 25.0267 14.8524 25.0808 14.8529C25.1348 14.8535 25.1884 14.8405 25.2327 14.8163Z" fill="#0077FF"/>
<path d="M17.5649 26.0142C17.1564 24.2158 17.287 22.325 17.9432 20.5403" stroke="#0077FF" stroke-width="0.03" stroke-miterlimit="10"/>
<path d="M17.8678 26.0163L17.8567 26.1466C17.8172 26.1604 17.7742 26.1672 17.7314 26.1663C17.6885 26.1655 17.6471 26.1571 17.6106 26.1418C17.5741 26.1265 17.5436 26.1048 17.5218 26.0785C17.4999 26.0522 17.4873 26.0221 17.485 25.9908C17.4711 25.9709 17.4648 25.9483 17.4668 25.9255C17.4687 25.9026 17.4788 25.8802 17.4961 25.8605C17.5342 25.8393 17.5795 25.8265 17.6262 25.8238C17.673 25.821 17.7191 25.8284 17.7589 25.8451C17.7986 25.8617 17.8301 25.8869 17.8495 25.9173C17.8689 25.9478 17.8752 25.9822 17.8678 26.0163Z" fill="#0077FF"/>
<path d="M18.0851 20.5901C18.0902 20.5507 18.0767 20.5119 18.0468 20.4801C18.017 20.4482 17.9726 20.4252 17.9209 20.4149C17.8899 20.3932 17.8484 20.381 17.8043 20.3806C17.7603 20.3801 17.7168 20.3915 17.6822 20.4125C17.6753 20.4548 17.6874 20.4968 17.7167 20.5323C17.746 20.5679 17.7909 20.5949 17.8446 20.6095C17.8794 20.6285 17.9233 20.637 17.9678 20.6334C18.0122 20.6298 18.0541 20.6144 18.0851 20.5901Z" fill="#0077FF"/>
<path d="M36.8126 36.8407C35.3561 36.7961 33.919 36.6228 32.5293 36.3242" stroke="#0077FF" stroke-width="0.03" stroke-miterlimit="10"/>
<path d="M36.8136 36.6457C36.8642 36.6458 36.9121 36.6593 36.9485 36.6836C36.9848 36.708 37.0071 36.7415 37.0112 36.7781C37.0112 36.7781 37.002 36.8867 36.8231 36.885C36.6441 36.8832 36.6143 36.8829 36.6254 36.7526C36.6365 36.6222 36.6943 36.6445 36.8136 36.6457Z" fill="#0077FF"/>
<path d="M32.5222 36.1937C32.5222 36.1937 32.3135 36.1917 32.3042 36.3003C32.3084 36.3368 32.3307 36.3704 32.367 36.3947C32.4034 36.4191 32.4513 36.4326 32.5019 36.4327L32.6808 36.4344C32.6808 36.4344 32.6397 36.2166 32.5222 36.1937Z" fill="#0077FF"/>
<path d="M49.0878 18.472C51.4484 20.2709 52.8778 22.6676 53.1334 25.2552C53.389 27.8427 52.4551 30.4618 50.4902 32.6679C49.0526 34.1263 47.1496 35.2859 44.9762 36.0278" stroke="#0077FF" stroke-width="0.03" stroke-miterlimit="10"/>
<path d="M48.4023 18.6093C48.3837 18.595 48.3694 18.5779 48.3603 18.5591C48.3511 18.5404 48.3473 18.5203 48.349 18.5C48.3507 18.4798 48.358 18.4598 48.3703 18.4413C48.3826 18.4227 48.3998 18.4059 48.4208 18.392C48.4676 18.3618 48.5276 18.3454 48.5885 18.3459C48.6494 18.3465 48.7065 18.3641 48.7481 18.3951C48.7667 18.4095 48.781 18.4266 48.7902 18.4453C48.7993 18.4641 48.8031 18.4842 48.8014 18.5044C48.7997 18.5247 48.7925 18.5447 48.7801 18.5632C48.7678 18.5818 48.7507 18.5985 48.7297 18.6125C48.6805 18.6385 48.6217 18.6523 48.5625 18.6517C48.5033 18.6511 48.4469 18.6362 48.4023 18.6093Z" fill="#0077FF"/>
<path d="M44.9625 35.7243C44.9432 35.7342 44.9271 35.7472 44.9155 35.7621C44.9039 35.777 44.8971 35.7935 44.8957 35.8103C44.8942 35.8271 44.8982 35.8437 44.9072 35.8589C44.9163 35.874 44.9302 35.8872 44.9478 35.8975C44.9878 35.9225 45.0391 35.9364 45.0932 35.9369C45.1472 35.9374 45.2008 35.9245 45.2451 35.9003C45.2451 35.9003 45.2543 35.7922 45.2598 35.7272C45.2197 35.7022 45.1684 35.6883 45.1143 35.6878C45.0603 35.6873 45.0067 35.7002 44.9625 35.7243Z" fill="#0077FF"/>
<path d="M32.6434 13.4676C33.5423 13.4151 34.4401 13.4285 35.3308 13.5076" stroke="#0077FF" stroke-width="0.03" stroke-miterlimit="10"/>
<path d="M32.6602 13.6241C32.6019 13.6238 32.5468 13.608 32.5053 13.5795C32.4638 13.5511 32.4388 13.512 32.4352 13.4697C32.4352 13.4697 32.4499 13.2958 32.6563 13.3196C32.7146 13.3198 32.7698 13.3357 32.8112 13.3641C32.8527 13.3926 32.8777 13.4317 32.8813 13.474C32.8779 13.5143 32.8527 13.5528 32.8112 13.581C32.7697 13.6091 32.7154 13.6246 32.6602 13.6241Z" fill="#0077FF"/>
<path d="M35.3445 13.7434C35.3997 13.7439 35.4541 13.7284 35.4955 13.7002C35.537 13.6721 35.5622 13.6336 35.5657 13.5933C35.5569 13.5468 35.5275 13.5045 35.4818 13.4727C35.4362 13.4409 35.3768 13.4212 35.3127 13.4168C35.2575 13.4163 35.2032 13.4318 35.1617 13.4599C35.1202 13.4881 35.095 13.5266 35.0916 13.5669C35.0948 13.615 35.1225 13.6596 35.1692 13.6922C35.2159 13.7248 35.2784 13.743 35.3445 13.7434Z" fill="#0077FF"/>
<path d="M21.482 31.3312C21.1813 31.0466 20.8807 30.762 20.6113 30.4561" stroke="#0077FF" stroke-width="0.03" stroke-miterlimit="10"/>
<path d="M21.6707 31.2669C21.6707 31.2669 21.6579 31.4178 21.6561 31.4394C21.6169 31.4618 21.5689 31.4739 21.5203 31.4734C21.4718 31.4729 21.4259 31.46 21.3906 31.4368C21.3906 31.4368 21.4034 31.2859 21.4052 31.2643C21.4443 31.2419 21.4924 31.2298 21.5409 31.2303C21.5895 31.2308 21.6354 31.2437 21.6707 31.2669Z" fill="#0077FF"/>
<path d="M20.732 30.4132C20.694 30.3932 20.6482 30.3822 20.6002 30.3818C20.5523 30.3813 20.5047 30.3913 20.4634 30.4106C20.444 30.4205 20.4278 30.4335 20.4162 30.4485C20.4045 30.4635 20.3977 30.4801 20.3963 30.497C20.3948 30.5139 20.3988 30.5306 20.4079 30.5458C20.417 30.561 20.4309 30.5742 20.4486 30.5846C20.488 30.6021 20.5335 30.6116 20.5807 30.6121C20.6278 30.6125 20.6749 30.6039 20.7172 30.5872C20.7366 30.5772 20.7527 30.5642 20.7644 30.5492C20.776 30.5342 20.7828 30.5176 20.7843 30.5008C20.7857 30.4839 20.7817 30.4672 20.7727 30.452C20.7636 30.4368 20.7497 30.4235 20.732 30.4132Z" fill="#0077FF"/>
<path d="M51.5858 25.985C51.7643 28.0792 50.9471 30.1896 49.2806 31.9382C48.7816 32.4437 48.2204 32.9133 47.6051 33.3401" stroke="#0077FF" stroke-width="0.03" stroke-miterlimit="10"/>
<path d="M51.3403 26.023C51.3416 26.0039 51.3486 25.9849 51.3609 25.9676C51.3731 25.9503 51.3904 25.9349 51.4113 25.9227C51.4323 25.9104 51.4565 25.9015 51.4822 25.8966C51.5079 25.8918 51.5345 25.891 51.56 25.8945C51.5901 25.8916 51.6203 25.8935 51.6486 25.9C51.677 25.9066 51.7027 25.9175 51.7241 25.9322C51.7456 25.9469 51.7621 25.965 51.7727 25.9851C51.7833 26.0053 51.7877 26.0271 51.7855 26.0491C51.7752 26.0855 51.7472 26.1187 51.7068 26.1423C51.6664 26.1659 51.6163 26.1785 51.5658 26.1776C51.5074 26.1774 51.4521 26.1615 51.4106 26.133C51.369 26.1045 51.344 26.0654 51.3403 26.023Z" fill="#0077FF"/>
<path d="M47.4355 33.1881C47.4016 33.2152 47.3814 33.2496 47.3784 33.2854C47.3753 33.3212 47.3897 33.356 47.4188 33.3838C47.459 33.4089 47.5103 33.4229 47.5645 33.4234C47.6186 33.4239 47.6723 33.411 47.7166 33.3867C47.748 33.363 47.7668 33.3322 47.7695 33.3001C47.7723 33.268 47.7587 33.2369 47.7314 33.2127C47.6925 33.1875 47.6435 33.1716 47.5908 33.1672C47.5381 33.1629 47.484 33.1701 47.4355 33.1881Z" fill="#0077FF"/>
<path d="M47.6631 19.6165L47.9364 19.8792" stroke="#0077FF" stroke-width="0.03" stroke-miterlimit="10"/>
<path d="M47.4631 19.7652C47.4321 19.7341 47.417 19.6957 47.4204 19.6563C47.4237 19.6169 47.4453 19.5789 47.4815 19.5485C47.5281 19.5184 47.5877 19.502 47.6483 19.5026C47.7089 19.5032 47.7657 19.5207 47.807 19.5516C47.807 19.5516 47.7923 19.725 47.7887 19.7683C47.7421 19.7984 47.6824 19.8148 47.6219 19.8142C47.5613 19.8136 47.5045 19.7961 47.4631 19.7652Z" fill="#0077FF"/>
<path d="M47.7588 19.9643C47.8034 19.9912 47.8597 20.0061 47.919 20.0067C47.9782 20.0072 48.037 19.9935 48.0861 19.9675C48.1071 19.9535 48.1243 19.9368 48.1366 19.9182C48.1489 19.8996 48.1562 19.8797 48.1579 19.8594C48.1596 19.8392 48.1558 19.8191 48.1466 19.8003C48.1375 19.7815 48.1232 19.7645 48.1046 19.7501C48.063 19.7191 48.0058 19.7015 47.945 19.7009C47.8841 19.7003 47.824 19.7168 47.7772 19.7469C47.7562 19.7609 47.7391 19.7777 47.7268 19.7962C47.7144 19.8148 47.7072 19.8348 47.7055 19.855C47.7037 19.8753 47.7076 19.8954 47.7167 19.9141C47.7259 19.9329 47.7402 19.9499 47.7588 19.9643Z" fill="#0077FF"/>
<path d="M19.083 25.4248C18.7172 23.5468 19.1512 21.6017 20.3245 19.8598C21.4883 18.2081 23.2937 16.8417 25.4916 15.9491" stroke="#0077FF" stroke-width="0.03" stroke-miterlimit="10"/>
<path d="M25.628 16.1492C25.628 16.1492 25.639 16.0192 25.6464 15.9325C25.6065 15.9075 25.5554 15.8936 25.5016 15.8931C25.4479 15.8925 25.3945 15.9054 25.3505 15.9297C25.3142 15.9601 25.2927 15.9981 25.2893 16.0375C25.286 16.0769 25.3011 16.1153 25.3321 16.1464C25.3741 16.1682 25.4246 16.1802 25.4772 16.1807C25.5299 16.1812 25.5824 16.1702 25.628 16.1492Z" fill="#0077FF"/>
<path d="M20.9026 26.1906C20.3319 24.3025 20.6838 22.2926 21.8963 20.5134C23.1055 18.8279 25.0604 17.4883 27.4117 16.7339" stroke="#0077FF" stroke-width="0.03" stroke-miterlimit="10"/>
<path d="M21.1395 26.1041C21.1437 26.1222 21.1415 26.1409 21.133 26.1586C21.1245 26.1762 21.1101 26.1923 21.0912 26.2051C21.0722 26.218 21.0493 26.2273 21.0245 26.2322C20.9998 26.237 20.9741 26.2372 20.9499 26.2328C20.8994 26.2327 20.8515 26.2192 20.8152 26.1949C20.779 26.1705 20.7567 26.1369 20.7526 26.1004L20.9125 25.9714C20.964 25.9765 21.0121 25.9914 21.0519 26.0147C21.0918 26.038 21.122 26.0689 21.1395 26.1041Z" fill="#0077FF"/>
<path d="M27.5193 16.9585C27.5403 16.9445 27.5575 16.9278 27.5698 16.9092C27.5821 16.8907 27.5893 16.8707 27.5911 16.8505C27.5928 16.8302 27.5889 16.8102 27.5798 16.7914C27.5707 16.7726 27.5564 16.7556 27.5378 16.7412C27.4977 16.7161 27.4464 16.7022 27.3923 16.7017C27.3383 16.7011 27.2847 16.7141 27.2404 16.7383C27.204 16.7688 27.1823 16.807 27.1789 16.8465C27.1756 16.886 27.1907 16.9245 27.2219 16.9556C27.2655 16.9751 27.3159 16.9857 27.3681 16.9862C27.4203 16.9867 27.4725 16.9771 27.5193 16.9585Z" fill="#0077FF"/>
<path d="M22.5028 26.1352C22.0225 24.4749 22.3653 22.7129 23.4695 21.1658C24.6072 19.5897 26.4937 18.3669 28.7427 17.7479" stroke="#0077FF" stroke-width="0.03" stroke-miterlimit="10"/>
<path d="M22.7312 26.0737C22.7488 26.0926 22.7572 26.1155 22.7552 26.1389C22.7532 26.1623 22.7409 26.185 22.7202 26.2035C22.6679 26.2009 22.6187 26.187 22.5786 26.1634C22.5385 26.1399 22.5095 26.1079 22.4952 26.0713C22.4698 26.0509 22.457 26.0235 22.4594 25.9952C22.4618 25.9669 22.4792 25.9398 22.508 25.9199C22.5658 25.9201 22.6205 25.9359 22.6616 25.9642C22.7028 25.9926 22.7275 26.0315 22.7312 26.0737Z" fill="#0077FF"/>
<path d="M28.8508 17.9476C28.8508 17.9476 28.9996 17.949 28.8675 17.752C28.8273 17.7269 28.776 17.7129 28.7219 17.7124C28.6679 17.7118 28.6142 17.7248 28.5699 17.7491C28.5361 17.7762 28.5159 17.8106 28.5129 17.8464C28.5098 17.8822 28.5241 17.917 28.5533 17.9447C28.5714 17.9593 28.5936 17.971 28.6185 17.9791C28.6434 17.9872 28.6705 17.9915 28.6982 17.9918C28.7259 17.9921 28.7537 17.9883 28.7799 17.9807C28.8061 17.9731 28.8302 17.9618 28.8508 17.9476Z" fill="#0077FF"/>
<path d="M47.8261 31.1601C48.5665 30.3665 49.1049 29.4812 49.4125 28.5517" stroke="#0077FF" stroke-width="0.03" stroke-miterlimit="10"/>
<path d="M48.091 31.2126C48.0467 31.2368 47.9931 31.2497 47.9389 31.2492C47.8848 31.2486 47.8334 31.2347 47.7933 31.2097C47.7711 31.184 47.7606 31.1537 47.7633 31.1227C47.7659 31.0917 47.7815 31.0616 47.808 31.0364C47.8539 31.0154 47.9067 31.0045 47.9597 31.005C48.0127 31.0055 48.0635 31.0174 48.1058 31.0393C48.128 31.0649 48.1384 31.0953 48.1358 31.1263C48.1332 31.1573 48.1175 31.1874 48.091 31.2126Z" fill="#0077FF"/>
<path d="M49.678 28.6147C49.678 28.6147 49.691 28.4627 49.5135 28.4392C49.4755 28.4192 49.4295 28.4083 49.3816 28.4078C49.3336 28.4073 49.2858 28.4174 49.2445 28.4366C49.2445 28.4366 49.2316 28.5887 49.4072 28.6338C49.4466 28.6544 49.4954 28.6637 49.545 28.6602C49.5946 28.6567 49.6418 28.6406 49.678 28.6147Z" fill="#0077FF"/>
<path d="M23.9192 24.3167C24.0162 23.4441 24.3632 22.5881 24.9367 21.8067C25.5003 20.9818 26.3011 20.2534 27.2792 19.6761" stroke="#0077FF" stroke-width="0.03" stroke-miterlimit="10"/>
<path d="M24.1551 24.3062C24.1551 24.3062 24.144 24.4368 23.9073 24.4127C23.8487 24.4041 23.796 24.3826 23.756 24.3511C23.7161 24.3196 23.6908 24.2796 23.6834 24.2362C23.688 24.2166 23.6986 24.1978 23.7144 24.1811C23.7303 24.1645 23.7509 24.1505 23.7748 24.1403C23.7986 24.13 23.8251 24.1237 23.8522 24.1219C23.8794 24.1201 23.9064 24.1227 23.9313 24.1297C23.9899 24.1383 24.0426 24.1598 24.0825 24.1913C24.1225 24.2228 24.1478 24.2628 24.1551 24.3062Z" fill="#0077FF"/>
<path d="M27.442 19.9497C27.442 19.9497 27.4549 19.7978 27.4586 19.7544C27.4405 19.7398 27.4184 19.7281 27.3936 19.72C27.3687 19.7119 27.3417 19.7076 27.3141 19.7074C27.2865 19.7071 27.2588 19.7108 27.2326 19.7184C27.2065 19.726 27.1824 19.7373 27.1619 19.7515C27.1419 19.7635 27.1255 19.7784 27.1136 19.7951C27.1018 19.8119 27.0949 19.8301 27.0933 19.8485C27.0917 19.867 27.0956 19.8853 27.1045 19.9023C27.1135 19.9192 27.1274 19.9344 27.1453 19.9468C27.1453 19.9468 27.3771 20.0142 27.442 19.9497Z" fill="#0077FF"/>
<path d="M38.4144 30.2434C37.2518 30.5295 36.0337 30.6282 34.8413 30.533C33.6488 30.4378 32.5095 30.1508 31.4992 29.6912L30.8291 29.3401" stroke="#0077FF" stroke-width="0.03" stroke-miterlimit="10"/>
<path d="M38.3315 30.2654C38.3555 30.2471 38.3844 30.2325 38.4161 30.2226C38.4479 30.2127 38.4818 30.2078 38.5157 30.2081C38.5496 30.2084 38.5827 30.214 38.6127 30.2245C38.6427 30.235 38.669 30.2501 38.6898 30.2689C38.7075 30.2792 38.7215 30.2925 38.7305 30.3077C38.7396 30.323 38.7436 30.3397 38.7421 30.3566C38.7407 30.3735 38.7339 30.3901 38.7222 30.4052C38.7106 30.4202 38.6944 30.4332 38.675 30.4432C38.6337 30.4625 38.586 30.4725 38.5381 30.4721C38.4902 30.4716 38.4442 30.4606 38.4063 30.4406C38.3814 30.4368 38.3586 30.4285 38.34 30.4162C38.3214 30.404 38.3077 30.3883 38.3002 30.3707C38.2927 30.3531 38.2916 30.3342 38.2971 30.3157C38.3026 30.2973 38.3145 30.2799 38.3315 30.2654Z" fill="#0077FF"/>
<path d="M30.8756 29.3177C30.8601 29.3037 30.8405 29.2924 30.8181 29.2845C30.7957 29.2767 30.771 29.2725 30.7458 29.2723C30.7205 29.272 30.6952 29.2757 30.6715 29.2831C30.6478 29.2905 30.6263 29.3014 30.6084 29.3151C30.5746 29.3421 30.5545 29.3766 30.5514 29.4123C30.5484 29.448 30.5627 29.4828 30.5918 29.5105C30.6273 29.5338 30.6735 29.5468 30.7224 29.5473C30.7713 29.5478 30.8196 29.5357 30.859 29.5131C30.879 29.501 30.8955 29.4861 30.9073 29.4694C30.9192 29.4526 30.9261 29.4344 30.9277 29.416C30.9292 29.3975 30.9254 29.3792 30.9164 29.3622C30.9075 29.3453 30.8936 29.3301 30.8756 29.3177Z" fill="#0077FF"/>
<path d="M33.54 31.4275C34.9238 31.7364 36.3854 31.796 37.8289 31.6026" stroke="#0077FF" stroke-width="0.03" stroke-miterlimit="10"/>
<path d="M33.5204 31.5583C33.4677 31.5532 33.4197 31.5352 33.3842 31.5072C33.3487 31.4792 33.3277 31.4428 33.3247 31.404C33.3247 31.404 33.334 31.2952 33.5426 31.2972C33.6001 31.3031 33.6516 31.3243 33.6874 31.3567C33.7231 31.3892 33.7406 31.4307 33.7365 31.4733C33.7201 31.504 33.6889 31.5297 33.649 31.5454C33.609 31.5611 33.5632 31.5657 33.5204 31.5583Z" fill="#0077FF"/>
<path d="M37.8542 31.7295C37.8834 31.7094 37.9011 31.6822 37.9035 31.6537C37.9059 31.6252 37.8929 31.5977 37.8672 31.5771C37.7829 31.5509 37.6863 31.5499 37.5977 31.5745C37.5977 31.5745 37.4181 31.5728 37.5848 31.7269C37.6228 31.7469 37.6689 31.7578 37.7169 31.7583C37.765 31.7588 37.8128 31.7487 37.8542 31.7295Z" fill="#0077FF"/>
<path d="M37.7317 29.2698C36.8146 29.5163 35.8464 29.6104 34.8958 29.5453C33.9453 29.4803 33.0357 29.2576 32.2315 28.8933L31.5615 28.5427" stroke="#0077FF" stroke-width="0.03" stroke-miterlimit="10"/>
<path d="M37.6489 29.1389C37.6902 29.1196 37.7379 29.1096 37.7858 29.11C37.8337 29.1105 37.8796 29.1215 37.9176 29.1415C37.9353 29.1518 37.9492 29.1651 37.9583 29.1803C37.9673 29.1955 37.9713 29.2122 37.9699 29.229C37.9684 29.2459 37.9616 29.2625 37.95 29.2775C37.9383 29.2925 37.9222 29.3055 37.9028 29.3154C37.8605 29.3322 37.8134 29.3408 37.7662 29.3404C37.7191 29.3399 37.6735 29.3304 37.6341 29.3128C37.6164 29.3025 37.6025 29.2892 37.5935 29.274C37.5844 29.2588 37.5804 29.2421 37.5818 29.2253C37.5833 29.2084 37.5901 29.1918 37.6017 29.1768C37.6134 29.1618 37.6295 29.1488 37.6489 29.1389Z" fill="#0077FF"/>
<path d="M31.6506 28.4348C31.6506 28.4348 31.4122 28.4325 31.3527 28.4319C31.2931 28.4313 31.3416 28.5622 31.336 28.6273C31.3716 28.6507 31.418 28.6637 31.4671 28.6642C31.5161 28.6647 31.5647 28.6525 31.6042 28.6299C31.6422 28.6056 31.6678 28.5726 31.6763 28.5368C31.6848 28.5011 31.6757 28.4649 31.6506 28.4348Z" fill="#0077FF"/>
<path d="M36.7148 22.4688C38.0247 22.9024 39.1071 23.6183 39.8228 24.5243" stroke="#0077FF" stroke-width="0.03" stroke-miterlimit="10"/>
<path d="M39.7174 24.588C39.7575 24.6131 39.8088 24.6271 39.8629 24.6276C39.917 24.6282 39.9706 24.6152 40.015 24.5909C40.035 24.5789 40.0515 24.564 40.0634 24.5472C40.0752 24.5304 40.0822 24.5122 40.0838 24.4937C40.0853 24.4752 40.0815 24.4568 40.0725 24.4399C40.0635 24.4229 40.0496 24.4077 40.0316 24.3953C39.9915 24.3702 39.9402 24.3562 39.8861 24.3557C39.832 24.3552 39.7783 24.3681 39.734 24.3924C39.7002 24.4195 39.68 24.454 39.6769 24.4897C39.6739 24.5255 39.6882 24.5603 39.7174 24.588Z" fill="#0077FF"/>
<path d="M41.6522 24.5995C40.9747 23.4458 39.8211 22.4871 38.3448 21.8506L37.5957 21.5608" stroke="#0077FF" stroke-width="0.03" stroke-miterlimit="10"/>
<path d="M42.0194 24.3931C42.0486 24.4208 42.063 24.4555 42.0599 24.4912C42.0569 24.5269 42.0367 24.5612 42.0028 24.5883C41.9558 24.6069 41.9036 24.6164 41.8512 24.6159C41.7989 24.6154 41.7483 24.6048 41.7046 24.5854C41.6866 24.573 41.6726 24.5578 41.6636 24.5409C41.6546 24.524 41.6507 24.5057 41.6523 24.4872C41.6539 24.4688 41.6609 24.4506 41.6727 24.4338C41.6846 24.4171 41.7011 24.4023 41.7212 24.3902C41.7682 24.3716 41.8204 24.3621 41.8728 24.3626C41.9251 24.3631 41.9757 24.3737 42.0194 24.3931Z" fill="#0077FF"/>
<path d="M37.5722 21.3725C37.5722 21.3725 37.3039 21.3699 37.274 21.3696C37.2375 21.4001 37.2158 21.4381 37.2125 21.4776C37.2091 21.517 37.2243 21.5554 37.2556 21.5865C37.2979 21.6083 37.3488 21.6203 37.4019 21.6208C37.455 21.6213 37.5078 21.6104 37.5538 21.5894C37.5903 21.5589 37.612 21.5209 37.6153 21.4815C37.6187 21.4421 37.6035 21.4036 37.5722 21.3725Z" fill="#0077FF"/>
<path d="M36.0873 28.3995C35.0398 28.5284 33.9816 28.3905 33.0869 28.0086C32.8372 27.9043 32.6036 27.781 32.3896 27.6406" stroke="#0077FF" stroke-width="0.03" stroke-miterlimit="10"/>
<path d="M36.0401 28.2714C36.0953 28.2641 36.1514 28.2713 36.1983 28.2916C36.2453 28.3118 36.2801 28.3439 36.2967 28.3822L36.2839 28.5338C36.2562 28.5401 36.2273 28.5422 36.199 28.5399C36.1707 28.5377 36.1437 28.5312 36.1196 28.5208C36.0955 28.5103 36.0748 28.4963 36.0589 28.4794C36.043 28.4626 36.0322 28.4434 36.0272 28.4229C36.0272 28.4229 35.9515 28.2705 36.0401 28.2714Z" fill="#0077FF"/>
<path d="M32.4241 27.5319C32.4059 27.5173 32.3838 27.5056 32.3589 27.4975C32.3341 27.4894 32.307 27.4851 32.2793 27.4848C32.2517 27.4846 32.2239 27.4883 32.1977 27.4959C32.1716 27.5035 32.1474 27.5148 32.1268 27.529C32.0931 27.5561 32.0729 27.5905 32.0698 27.6263C32.0668 27.662 32.0811 27.6968 32.1102 27.7245C32.1503 27.7496 32.2016 27.7635 32.2556 27.7641C32.3096 27.7646 32.3632 27.7516 32.4075 27.7274C32.4412 27.7003 32.4614 27.6659 32.4644 27.6301C32.4675 27.5944 32.4532 27.5596 32.4241 27.5319Z" fill="#0077FF"/>
<path d="M42.1094 49.1445C40.026 50.1992 37.3177 50.7266 33.9844 50.7266C29.7266 50.7266 26.3281 49.431 23.7891 46.8398C21.263 44.2357 20 40.7721 20 36.4492C20 31.918 21.4128 28.2135 24.2383 25.3359C27.0638 22.4453 30.6901 21 35.1172 21C37.9036 21 40.2344 21.3711 42.1094 22.1133V27.543C40.1562 26.4102 37.9427 25.8438 35.4688 25.8438C32.5651 25.8438 30.2344 26.7878 28.4766 28.6758C26.7318 30.5638 25.8594 33.0247 25.8594 36.0586C25.8594 39.0404 26.6927 41.4232 28.3594 43.207C30.026 44.9909 32.2461 45.8828 35.0195 45.8828C37.6367 45.8828 40 45.2578 42.1094 44.0078V49.1445Z" fill="white"/>
<path d="M50.4184 43.2188H42.1984V28.9387H50.4184V31.4187H45.2184V34.5587H50.0584V37.0387H45.2184V40.7188H50.4184V43.2188Z" fill="white"/>
<circle cx="35" cy="36" r="33.5" stroke="#8115C2" stroke-width="3"/>
<circle cx="35" cy="36" r="30.5" stroke="#B43131" stroke-dasharray="2 2"/>
<circle cx="35" cy="36" r="27.5" stroke="url(#paint0_linear_540_1829)" stroke-width="3"/>
<defs>
<linearGradient id="paint0_linear_540_1829" x1="6" y1="7" x2="23.0588" y2="75.2353" gradientUnits="userSpaceOnUse">
<stop stop-color="#D9A067"/>
<stop offset="0.425859" stop-color="#04B5E2"/>
<stop offset="1" stop-color="#BE68BD"/>
</linearGradient>
</defs>
</svg>
